<svg width="8.798828" height="12.978516" viewBox="0 0 8.79883 12.9785" fill="none" xmlns="http://www.w3.org/2000/svg" xmlns:xlink="http://www.w3.org/1999/xlink">
	<desc>
			Created with Pixso.
	</desc>
	<defs/>
	<path id="2" d="M0.47 0.82L0.34 3.65L0.54 3.65L1.49 1.79Q1.89 1.04 2.42 0.73Q2.68 0.58 2.96 0.5Q3.25 0.41 3.57 0.41Q4.09 0.41 4.47 0.64Q4.83 0.85 5.07 1.26Q5.58 2.11 5.58 3.49Q5.58 4.05 5.45 4.57Q5.28 5.3 4.86 5.97Q4.16 7.11 2.71 8.59L1.4 9.91Q0.71 10.6 0 11.29L0 12.97L8.79 12.97L8.79 10.69L1.29 10.69Q1.82 10.25 2.41 9.79Q3.01 9.34 3.46 9.01Q5.78 7.43 7.11 6.12Q8.38 4.89 8.45 3.59Q8.46 3.51 8.46 3.43Q8.46 2.7 8.19 2.07Q8.11 1.87 7.99 1.67Q7.97 1.63 7.94 1.6Q7.48 0.87 6.55 0.44Q5.58 0 3.97 0Q2.86 0 1.96 0.23Q1.07 0.47 0.47 0.82Z" fill="#CDA274" fill-opacity="1.000000" fill-rule="evenodd"/>
</svg>
