<svg width="8.740234" height="13.276367" viewBox="0 0 8.74023 13.2764" fill="none" xmlns="http://www.w3.org/2000/svg" xmlns:xlink="http://www.w3.org/1999/xlink">
	<desc>
			Created with Pixso.
	</desc>
	<defs/>
	<path id="3" d="M1.66 12.97Q2.51 13.27 3.85 13.27Q5.38 13.27 6.46 12.79Q7.53 12.33 8.12 11.52Q8.13 11.49 8.14 11.47Q8.42 11.08 8.57 10.65Q8.74 10.15 8.74 9.59Q8.74 8.95 8.51 8.4Q8.28 7.84 7.81 7.38Q6.89 6.45 4.85 6.27Q6.66 5.93 7.5 5.04Q8.23 4.27 8.32 3.42Q8.33 3.3 8.33 3.17Q8.33 2.57 8.12 2.06Q7.85 1.41 7.24 0.9Q6.15 0 4.05 0Q3.08 0 2.29 0.19Q1.49 0.38 0.85 0.65L0.65 3.59L0.85 3.61L1.75 1.93Q1.95 1.57 2.22 1.26Q2.39 1.06 2.58 0.89Q2.72 0.78 2.88 0.69Q3.3 0.45 3.85 0.45Q4.19 0.45 4.48 0.59Q4.82 0.75 5.07 1.1Q5.53 1.75 5.53 3.3Q5.53 4.87 5.06 5.51Q4.98 5.62 4.88 5.72Q4.41 6.15 3.54 6.15L2.48 6.15L2.48 6.55L3.68 6.55Q4.64 6.55 5.14 7.04Q5.23 7.13 5.31 7.25Q5.8 7.93 5.8 9.51Q5.8 11.33 5.22 12.1Q4.91 12.53 4.48 12.72Q4.14 12.88 3.74 12.88Q3.17 12.88 2.7 12.67Q1.86 12.31 1.29 11.29L0.41 9.67L0.21 9.67L0 12.28Q0.82 12.68 1.66 12.97Z" fill="#CDA274" fill-opacity="1.000000" fill-rule="evenodd"/>
</svg>
