<svg aria-hidden="true" style="position: absolute; width: 0; height: 0; overflow: hidden;" version="1.1" xmlns="http://www.w3.org/2000/svg" xmlns:xlink="http://www.w3.org/1999/xlink">
<defs>

<symbol id="icon-tvit" viewBox="0 0 39 32">
<path d="M35.378 7.94c1.535-1.162 2.939-2.544 4.014-4.167-1.382 0.614-3.005 1.075-4.628 1.228 1.689-1.009 2.939-2.544 3.553-4.474-1.557 0.921-3.312 1.623-5.088 2.018-1.557-1.623-3.619-2.544-5.944-2.544-4.474 0-8.093 3.619-8.093 8.093 0 0.614 0.066 1.228 0.219 1.842-6.69-0.395-12.721-3.619-16.713-8.488-0.702 1.162-1.097 2.544-1.097 4.101 0 2.764 1.404 5.242 3.641 6.69-1.316-0.066-2.632-0.373-3.707-0.987v0.066c0 3.948 2.764 7.172 6.47 7.94-0.614 0.154-1.382 0.307-2.084 0.307-0.526 0-0.987-0.066-1.535-0.154 1.009 3.246 4.014 5.571 7.545 5.637-2.764 2.171-6.229 3.465-10.023 3.465-0.68 0-1.294-0.066-1.908-0.154 3.531 2.325 7.786 3.619 12.414 3.619 14.871 0 22.964-12.239 22.964-22.964 0-0.395 0-0.702 0-1.075z"></path>
</symbol>

<symbol id="icon-inst" viewBox="0 0 32 32">
<path d="M16.034 7.738c-4.581 0-8.219 3.715-8.219 8.219 0 4.562 3.638 8.219 8.219 8.219 4.485 0 8.2-3.657 8.2-8.219 0-4.504-3.715-8.219-8.2-8.219zM16.034 21.308c-2.945 0-5.37-2.348-5.37-5.351 0-2.926 2.368-5.293 5.37-5.293 2.926 0 5.274 2.368 5.274 5.293 0 3.003-2.348 5.351-5.274 5.351zM26.447 7.449c0-1.059-0.847-1.925-1.925-1.925-1.059 0-1.925 0.866-1.925 1.925 0 1.078 0.866 1.925 1.925 1.925 1.078 0 1.925-0.847 1.925-1.925zM31.875 9.374c-0.135-2.56-0.712-4.851-2.56-6.698-1.867-1.867-4.138-2.445-6.718-2.579-2.637-0.135-10.567-0.135-13.223 0-2.56 0.135-4.774 0.712-6.698 2.579-1.867 1.848-2.445 4.138-2.579 6.698-0.135 2.656-0.135 10.586 0 13.223 0.135 2.579 0.712 4.793 2.579 6.718 1.925 1.848 4.138 2.425 6.698 2.56 2.656 0.154 10.586 0.154 13.223 0 2.579-0.135 4.851-0.712 6.718-2.56 1.848-1.925 2.425-4.138 2.56-6.718 0.154-2.637 0.154-10.567 0-13.223zM28.449 25.388c-0.5 1.424-1.636 2.502-3.003 3.060-2.137 0.866-7.141 0.654-9.412 0.654-2.368 0-7.372 0.212-9.432-0.654-1.424-0.558-2.502-1.636-3.080-3.060-0.847-2.079-0.635-7.083-0.635-9.432 0-2.291-0.212-7.295 0.635-9.432 0.577-1.347 1.655-2.425 3.080-3.003 2.060-0.847 7.064-0.635 9.432-0.635 2.271 0 7.276-0.212 9.412 0.635 1.367 0.5 2.445 1.655 3.003 3.003 0.866 2.137 0.654 7.141 0.654 9.432 0 2.348 0.212 7.353-0.654 9.432z"></path>
</symbol>

<symbol id="icon-in" viewBox="0 0 32 32">
<path d="M7.147 31.99v-21.401h-6.659v21.401h6.659zM3.788 7.718c2.138 0 3.869-1.792 3.869-3.93 0-2.077-1.731-3.788-3.869-3.788-2.077 0-3.788 1.71-3.788 3.788 0 2.138 1.71 3.93 3.788 3.93zM31.99 31.99h0.081v-11.749c0-5.722-1.303-10.161-8.023-10.161-3.217 0-5.376 1.792-6.313 3.441h-0.061v-2.932h-6.374v21.401h6.659v-10.589c0-2.79 0.509-5.457 3.93-5.457 3.441 0 3.523 3.156 3.523 5.661v10.385h6.577z"></path>
</symbol>

<symbol id="icon-fb" viewBox="0 0 17 32">
<path d="M16.053 17.991h-4.693v14.009h-6.24v-14.009h-5.12v-5.742h5.12v-4.444c0-4.996 3.004-7.804 7.556-7.804 2.187 0 4.498 0.427 4.498 0.427v4.942h-2.56c-2.489 0-3.253 1.493-3.253 3.129v3.751h5.564l-0.871 5.742z"></path>
</symbol>

</defs>
</svg>
