<svg aria-hidden="true" style="position: absolute; width: 0; height: 0; overflow: hidden;" version="1.1" xmlns="http://www.w3.org/2000/svg" xmlns:xlink="http://www.w3.org/1999/xlink">
<defs>
<symbol id="icon-client-1" viewBox="0 0 99 32">
<path d="M8.784-0v0.136l-0.582 0.144v6.209l0.582 0.136v0.144h-2.764v-0.144l0.589-0.136v-5.295l-2.289 5.672h-0.295l-2.961-5.672v5.144l0.778 0.287v0.144h-1.843v-0.144l0.77-0.287v-6.058l-0.582-0.143v-0.136h1.208c0.181 0 0.347 0.015 0.476 0.060s0.257 0.098 0.355 0.174c0.106 0.076 0.196 0.159 0.272 0.257s0.136 0.219 0.204 0.332l2.115 4.048 1.616-4.048c0.053-0.136 0.106-0.257 0.181-0.355 0.068-0.098 0.151-0.181 0.249-0.257s0.212-0.128 0.355-0.159c0.144-0.038 0.31-0.053 0.529-0.053h1.035z"></path>
<path d="M12.236 1.798c0.4 0 0.763 0.053 1.073 0.174 0.317 0.113 0.589 0.287 0.816 0.506 0.227 0.227 0.385 0.491 0.506 0.808 0.113 0.31 0.166 0.68 0.166 1.080 0 0.393-0.053 0.763-0.166 1.073-0.121 0.317-0.295 0.582-0.506 0.808-0.227 0.227-0.498 0.393-0.816 0.514-0.31 0.113-0.672 0.166-1.073 0.166s-0.77-0.053-1.080-0.166c-0.31-0.121-0.582-0.295-0.808-0.514-0.227-0.227-0.385-0.491-0.506-0.808-0.121-0.31-0.174-0.68-0.174-1.073 0-0.4 0.053-0.77 0.174-1.080 0.121-0.317 0.287-0.582 0.506-0.808 0.227-0.227 0.498-0.393 0.808-0.506 0.31-0.121 0.665-0.174 1.080-0.174zM12.236 6.745c0.106 0 0.211-0.030 0.332-0.106 0.106-0.076 0.204-0.196 0.295-0.378 0.083-0.181 0.159-0.423 0.211-0.725 0.053-0.31 0.083-0.702 0.083-1.163 0-0.476-0.030-0.861-0.083-1.163s-0.128-0.551-0.211-0.725c-0.091-0.174-0.189-0.302-0.295-0.378s-0.219-0.106-0.332-0.106c-0.113 0-0.219 0.030-0.34 0.106-0.106 0.076-0.204 0.196-0.287 0.378-0.091 0.189-0.159 0.423-0.219 0.725-0.053 0.31-0.083 0.702-0.083 1.163 0 0.476 0.030 0.861 0.083 1.163 0.060 0.302 0.128 0.551 0.219 0.725 0.083 0.174 0.181 0.302 0.287 0.378 0.113 0.060 0.219 0.106 0.34 0.106z"></path>
<path d="M19.51-0c0.582 0 0.876 0.287 0.876 0.869v5.627l0.582 0.144v0.136h-0.876c-0.234 0-0.415-0.030-0.559-0.106s-0.257-0.159-0.332-0.249c-0.098-0.106-0.174-0.234-0.219-0.363-0.083 0.174-0.189 0.31-0.325 0.438-0.106 0.113-0.257 0.204-0.438 0.302s-0.4 0.144-0.65 0.144c-0.279 0-0.536-0.053-0.778-0.166-0.242-0.106-0.446-0.264-0.619-0.483-0.174-0.212-0.325-0.483-0.423-0.793-0.106-0.325-0.151-0.695-0.151-1.125s0.053-0.801 0.151-1.118c0.106-0.325 0.249-0.582 0.446-0.801 0.181-0.219 0.408-0.378 0.665-0.483 0.257-0.113 0.551-0.166 0.876-0.166 0.174 0 0.325 0.023 0.461 0.053 0.143 0.045 0.257 0.091 0.355 0.144 0.121 0.053 0.219 0.121 0.302 0.196v-1.888l-0.582-0.143v-0.136h1.239v-0.030zM18.83 2.477c-0.076-0.076-0.136-0.143-0.227-0.196-0.076-0.053-0.151-0.098-0.234-0.136-0.083-0.045-0.174-0.060-0.272-0.060-0.121 0-0.234 0.038-0.347 0.098-0.106 0.068-0.189 0.174-0.279 0.34-0.076 0.159-0.136 0.393-0.181 0.687-0.045 0.302-0.060 0.68-0.060 1.156 0 0.461 0.015 0.831 0.060 1.118 0.045 0.295 0.098 0.521 0.174 0.68 0.068 0.159 0.143 0.279 0.234 0.332s0.174 0.091 0.264 0.091c0.151 0 0.279-0.045 0.385-0.121s0.196-0.174 0.272-0.272c0.083-0.113 0.159-0.249 0.227-0.385v-3.331h-0.015z"></path>
<path d="M24.215 6.941c-0.831 0-1.48-0.227-1.934-0.68-0.461-0.453-0.687-1.088-0.687-1.888 0-0.4 0.053-0.763 0.174-1.080 0.113-0.31 0.279-0.582 0.483-0.808s0.453-0.385 0.755-0.506c0.287-0.121 0.612-0.174 0.967-0.174 0.37 0 0.695 0.053 0.974 0.151 0.287 0.113 0.529 0.249 0.733 0.423s0.355 0.378 0.461 0.612c0.106 0.242 0.166 0.491 0.166 0.755 0 0.091 0 0.174-0.015 0.242-0.008 0.060-0.023 0.128-0.030 0.181-0.023 0.060-0.038 0.121-0.053 0.159-0.279 0.053-0.582 0.113-0.906 0.144-0.272 0.045-0.582 0.076-0.937 0.098-0.363 0.023-0.725 0.038-1.11 0.038 0 0.4 0.030 0.74 0.083 1.005 0.053 0.272 0.136 0.483 0.234 0.634 0.113 0.166 0.227 0.272 0.37 0.34 0.136 0.060 0.302 0.098 0.461 0.098 0.196 0 0.378-0.038 0.551-0.113s0.325-0.159 0.446-0.279c0.128-0.121 0.227-0.257 0.302-0.408 0.068-0.151 0.106-0.302 0.106-0.461h0.234c0 0.189-0.045 0.37-0.128 0.559-0.083 0.181-0.212 0.34-0.378 0.483-0.159 0.144-0.355 0.249-0.582 0.332-0.219 0.098-0.461 0.144-0.74 0.144zM23.241 4.366c0.219 0 0.408 0 0.582-0.015 0.174-0.008 0.317-0.023 0.431-0.030 0.143-0.015 0.249-0.030 0.347-0.045 0.008-0.060 0.030-0.136 0.045-0.212 0.008-0.076 0.023-0.151 0.030-0.242 0.008-0.083 0.008-0.181 0.008-0.279 0-0.287-0.015-0.536-0.060-0.733s-0.098-0.355-0.174-0.483c-0.068-0.121-0.143-0.219-0.234-0.257-0.098-0.045-0.174-0.076-0.264-0.076-0.083 0-0.174 0.030-0.257 0.091-0.083 0.068-0.159 0.189-0.234 0.347-0.068 0.174-0.136 0.408-0.174 0.725-0.045 0.31-0.045 0.71-0.045 1.208z"></path>
<path d="M30.378 2.13c-0.196 0-0.363 0.045-0.514 0.121s-0.287 0.174-0.393 0.272c-0.121 0.113-0.212 0.242-0.31 0.385v3.588l0.582 0.144v0.136h-2.719v-0.136l0.582-0.144v-4.268l-0.582-0.143v-0.136h0.876c0.227 0 0.408 0.045 0.559 0.121 0.143 0.076 0.257 0.159 0.347 0.242 0.091 0.113 0.174 0.227 0.212 0.355 0.098-0.136 0.219-0.264 0.355-0.385 0.121-0.098 0.272-0.181 0.453-0.272 0.189-0.083 0.393-0.113 0.634-0.113 0.347 0 0.604 0.083 0.778 0.234 0.174 0.166 0.249 0.393 0.249 0.68 0 0.219-0.060 0.4-0.196 0.529-0.128 0.128-0.31 0.196-0.529 0.196-0.053 0-0.091 0-0.151 0-0.053 0-0.083-0.015-0.113-0.015-0.045-0.008-0.091-0.008-0.121-0.030v-1.36z"></path>
<path d="M35.658 3.391c0-0.212-0.015-0.408-0.060-0.574-0.045-0.159-0.098-0.287-0.174-0.385-0.060-0.106-0.136-0.181-0.234-0.227-0.091-0.045-0.174-0.076-0.264-0.076-0.151 0-0.279 0.045-0.385 0.121s-0.204 0.174-0.272 0.272c-0.083 0.113-0.151 0.242-0.212 0.385v3.588l0.582 0.144v0.136h-2.719v-0.136l0.582-0.144v-4.268l-0.582-0.143v-0.136h0.876c0.227 0 0.408 0.045 0.559 0.121 0.144 0.076 0.257 0.159 0.347 0.242 0.098 0.113 0.174 0.227 0.212 0.363 0.091-0.166 0.196-0.317 0.325-0.446 0.106-0.106 0.257-0.204 0.431-0.302s0.4-0.143 0.657-0.143c0.279 0 0.544 0.045 0.77 0.143 0.234 0.083 0.431 0.219 0.589 0.355 0.166 0.151 0.295 0.317 0.385 0.506 0.098 0.196 0.144 0.393 0.144 0.597v3.104l0.582 0.136v0.144h-1.261c-0.582 0-0.876-0.295-0.876-0.876v-2.5z"></path>
<path d="M1.020 13.595v-0.4h7.493v0.4l-1.571 0.393v8.142h5.65v-8.142l-1.579-0.393v-0.4h7.493v0.4l-1.571 0.393v16.821l1.571 0.4v0.4h-7.493v-0.408l1.579-0.4v-8.014h-5.65v8.014l1.571 0.4v0.393h-7.493v-0.393l1.579-0.4v-16.821l-1.579-0.385z"></path>
<path d="M27.826 18.052c1.088 0 2.054 0.166 2.923 0.476 0.861 0.317 1.579 0.778 2.183 1.382s1.073 1.337 1.382 2.198c0.31 0.861 0.476 1.835 0.476 2.923s-0.166 2.062-0.476 2.923c-0.31 0.861-0.778 1.586-1.382 2.19s-1.337 1.065-2.183 1.375c-0.869 0.317-1.835 0.476-2.923 0.476s-2.062-0.159-2.923-0.476c-0.861-0.31-1.586-0.77-2.19-1.375s-1.065-1.337-1.382-2.19c-0.31-0.861-0.468-1.835-0.468-2.923s0.159-2.062 0.468-2.923c0.317-0.861 0.778-1.586 1.382-2.198s1.337-1.065 2.19-1.382c0.861-0.31 1.835-0.476 2.923-0.476zM27.826 31.459c0.302 0 0.589-0.098 0.891-0.295 0.302-0.189 0.559-0.529 0.801-1.012 0.234-0.483 0.431-1.14 0.582-1.971s0.227-1.888 0.227-3.172c0-1.284-0.076-2.341-0.227-3.165-0.151-0.831-0.347-1.488-0.582-1.979-0.242-0.483-0.506-0.816-0.801-1.012-0.287-0.196-0.589-0.287-0.891-0.287s-0.597 0.091-0.899 0.287c-0.302 0.196-0.559 0.529-0.793 1.012-0.242 0.491-0.431 1.148-0.582 1.979-0.151 0.823-0.227 1.881-0.227 3.165s0.076 2.341 0.227 3.172c0.151 0.831 0.34 1.488 0.582 1.971 0.234 0.483 0.506 0.823 0.793 1.012 0.302 0.196 0.597 0.295 0.899 0.295z"></path>
<path d="M54.488 22.387c0-0.619-0.053-1.163-0.166-1.586-0.106-0.415-0.234-0.77-0.408-1.042s-0.355-0.461-0.551-0.589c-0.204-0.121-0.393-0.189-0.589-0.189-0.332 0-0.627 0.113-0.884 0.325-0.257 0.219-0.476 0.461-0.672 0.725-0.204 0.31-0.393 0.665-0.551 1.042v9.728l1.586 0.4v0.393h-7.349v-0.393l1.571-0.4v-8.414c0-0.619-0.053-1.163-0.159-1.586-0.106-0.415-0.242-0.77-0.408-1.042-0.174-0.272-0.363-0.461-0.551-0.589-0.204-0.121-0.4-0.189-0.597-0.189-0.332 0-0.627 0.113-0.884 0.325-0.257 0.219-0.476 0.461-0.665 0.725-0.219 0.31-0.4 0.665-0.551 1.042v9.728l1.571 0.4v0.393h-7.349v-0.393l1.571-0.4v-11.556l-1.571-0.4v-0.4h2.357c0.619 0 1.125 0.106 1.511 0.31 0.4 0.204 0.702 0.446 0.937 0.68 0.264 0.302 0.453 0.627 0.589 0.974 0.227-0.446 0.506-0.831 0.838-1.186 0.302-0.302 0.665-0.574 1.103-0.823s0.967-0.363 1.601-0.363c1.050 0 1.964 0.234 2.719 0.695 0.763 0.468 1.344 1.073 1.745 1.805 0.227-0.453 0.506-0.861 0.838-1.239 0.302-0.317 0.672-0.604 1.103-0.869 0.446-0.257 0.974-0.393 1.609-0.393 0.718 0 1.367 0.113 1.971 0.34 0.589 0.227 1.11 0.544 1.541 0.944 0.431 0.393 0.763 0.846 1.005 1.375 0.234 0.529 0.355 1.088 0.355 1.684v8.407l1.571 0.4v0.4h-3.414c-1.579 0-2.364-0.786-2.364-2.364v-6.836h-0.008z"></path>
<path d="M68.945 31.987c-2.243 0-3.988-0.619-5.227-1.858s-1.866-2.931-1.866-5.106c0-1.095 0.159-2.062 0.476-2.923 0.31-0.861 0.748-1.586 1.314-2.198 0.559-0.604 1.239-1.073 2.039-1.382 0.793-0.317 1.669-0.476 2.606-0.476 0.982 0 1.866 0.143 2.644 0.423 0.77 0.279 1.443 0.657 1.979 1.133 0.544 0.468 0.959 1.035 1.254 1.669 0.287 0.634 0.431 1.314 0.431 2.039 0 0.242-0.008 0.461-0.045 0.642-0.030 0.189-0.053 0.347-0.098 0.491-0.053 0.166-0.091 0.317-0.128 0.438-0.77 0.159-1.586 0.295-2.447 0.4-0.733 0.106-1.586 0.196-2.545 0.279-0.959 0.076-1.971 0.121-3.014 0.121 0 1.088 0.076 1.994 0.234 2.712 0.166 0.725 0.378 1.307 0.657 1.737s0.619 0.733 1.005 0.921c0.385 0.181 0.808 0.279 1.261 0.279 0.529 0 1.027-0.098 1.488-0.295s0.861-0.453 1.209-0.778c0.34-0.317 0.612-0.687 0.816-1.095s0.302-0.831 0.302-1.254h0.657c0 0.529-0.113 1.035-0.355 1.518-0.234 0.498-0.566 0.929-1.012 1.307-0.438 0.378-0.959 0.68-1.571 0.906-0.627 0.227-1.314 0.347-2.062 0.347zM66.316 25.023c0.589 0 1.118-0.015 1.571-0.045s0.846-0.053 1.156-0.091c0.363-0.030 0.68-0.076 0.944-0.128 0.038-0.166 0.076-0.363 0.136-0.582 0.030-0.189 0.060-0.408 0.083-0.642 0.023-0.242 0.045-0.491 0.045-0.748 0-0.786-0.068-1.443-0.189-1.986-0.113-0.536-0.279-0.967-0.461-1.299s-0.4-0.574-0.627-0.71c-0.234-0.143-0.468-0.219-0.695-0.219s-0.468 0.083-0.702 0.249c-0.242 0.174-0.446 0.483-0.627 0.944-0.181 0.468-0.332 1.125-0.461 1.964-0.113 0.846-0.174 1.941-0.174 3.293z"></path>
<path d="M87.502 31.33v-10.665l-9.426-7.462v18.127h9.426z"></path>
<path d="M99.157 31.33v-10.665l-9.275-7.462v18.127h9.275z"></path>
</symbol>
<symbol id="icon-client-2" viewBox="0 0 32 32">
<path fill="#fff" style="fill: var(--color1, #fff)" d="M31.775 15.997c0 8.716-7.065 15.778-15.778 15.778s-15.775-7.062-15.775-15.778c0-8.713 7.062-15.775 15.775-15.775s15.778 7.062 15.778 15.775z"></path>
<path fill="#292f36" style="fill: var(--color2, #292f36)" d="M16 32c-8.823 0-16-7.181-16-16.003 0-8.819 7.178-15.997 16-15.997 8.819 0 16 7.178 16 15.997 0 8.823-7.181 16.003-16 16.003zM16 0.444c-8.579 0-15.556 6.977-15.556 15.553 0 8.579 6.977 15.556 15.556 15.556 8.575 0 15.553-6.977 15.553-15.556 0-8.575-6.977-15.553-15.553-15.553z"></path>
<path fill="#292f36" style="fill: var(--color2, #292f36)" d="M18.249 1.823c0.106 0.009 0.2 0.016 0.275 0.016l-0.006 0.069c-0.125 0.019-0.235 0.113-0.319 0.291l-1.063 2.127-0.031-0.006-0.025-0.003-0.676-2.371c-0.044-0.156-0.119-0.241-0.225-0.253l0.006-0.072c0.1 0.016 0.228 0.031 0.391 0.047 0.21 0.019 0.366 0.031 0.469 0.031l-0.009 0.072c-0.094-0.003-0.163 0-0.203 0.012-0.038 0.016-0.063 0.050-0.066 0.094-0.003 0.041 0.003 0.1 0.028 0.175l0.494 1.814 0.735-1.482c0.063-0.122 0.094-0.219 0.103-0.291 0.009-0.075-0.012-0.134-0.063-0.175-0.047-0.041-0.128-0.063-0.235-0.075l0.009-0.072c0.128 0.022 0.266 0.041 0.41 0.053z"></path>
<path fill="#292f36" style="fill: var(--color2, #292f36)" d="M21.248 2.768c-0.044 0-0.078 0.016-0.106 0.053-0.028 0.034-0.059 0.094-0.091 0.178l-0.638 1.695c-0.031 0.084-0.047 0.153-0.047 0.197s0.012 0.081 0.044 0.106c0.031 0.028 0.088 0.059 0.169 0.094l-0.028 0.069c-0.1-0.047-0.244-0.103-0.428-0.175-0.194-0.075-0.341-0.125-0.441-0.156l0.028-0.066c0.084 0.025 0.147 0.038 0.188 0.038s0.078-0.016 0.106-0.053c0.025-0.034 0.056-0.094 0.091-0.178l0.638-1.695c0.031-0.084 0.047-0.153 0.047-0.197s-0.012-0.081-0.044-0.106c-0.031-0.028-0.091-0.059-0.169-0.094l0.025-0.069c0.094 0.041 0.238 0.1 0.435 0.175 0.181 0.072 0.328 0.122 0.438 0.153l-0.028 0.066c-0.081-0.028-0.144-0.041-0.188-0.034z"></path>
<path fill="#292f36" style="fill: var(--color2, #292f36)" d="M25.223 5.129c-0.047-0.009-0.091 0.003-0.131 0.031-0.041 0.025-0.088 0.078-0.141 0.156l-1.295 1.755-0.069-0.050 0.175-2.821-1.148 1.554c-0.053 0.075-0.091 0.138-0.106 0.185-0.019 0.050-0.009 0.094 0.012 0.141 0.022 0.044 0.075 0.094 0.153 0.156l-0.047 0.056c-0.066-0.056-0.166-0.134-0.294-0.231-0.116-0.084-0.21-0.153-0.281-0.191l0.044-0.059c0.072 0.050 0.131 0.075 0.175 0.081 0.044 0.009 0.091-0.006 0.128-0.031 0.041-0.031 0.091-0.081 0.144-0.156l1.054-1.429c0.053-0.075 0.091-0.134 0.103-0.175s0.009-0.078-0.012-0.116c-0.025-0.034-0.069-0.078-0.141-0.138l0.047-0.059c0.056 0.056 0.147 0.125 0.266 0.213 0.091 0.066 0.166 0.119 0.238 0.16l-0.144 2.364 0.929-1.257c0.053-0.075 0.094-0.138 0.106-0.188 0.016-0.050 0.009-0.094-0.012-0.138-0.022-0.047-0.075-0.1-0.153-0.156l0.047-0.059c0.066 0.059 0.166 0.134 0.294 0.231 0.116 0.088 0.21 0.153 0.281 0.194l-0.044 0.056c-0.078-0.044-0.134-0.075-0.178-0.078z"></path>
<path fill="#292f36" style="fill: var(--color2, #292f36)" d="M26.718 7.14c0.116-0.084 0.235-0.178 0.366-0.294 0.113 0.169 0.306 0.45 0.588 0.848 0.281 0.394 0.482 0.672 0.604 0.832-0.153 0.088-0.281 0.169-0.397 0.25-0.097 0.072-0.178 0.134-0.238 0.181l-0.047-0.066c0.141-0.125 0.241-0.228 0.297-0.303 0.059-0.075 0.081-0.156 0.075-0.241-0.003-0.084-0.056-0.188-0.141-0.313l-0.116-0.16-1.692 1.204c-0.081 0.059-0.141 0.113-0.166 0.15-0.028 0.041-0.038 0.091-0.019 0.144 0.012 0.050 0.053 0.122 0.113 0.21l-0.059 0.047c-0.066-0.109-0.169-0.26-0.303-0.444-0.141-0.2-0.25-0.344-0.322-0.432l0.059-0.047c0.066 0.088 0.122 0.144 0.166 0.175s0.088 0.041 0.138 0.028c0.050-0.016 0.116-0.050 0.197-0.109l1.692-1.204-0.116-0.16c-0.091-0.125-0.169-0.203-0.247-0.238-0.075-0.034-0.16-0.041-0.25-0.009-0.088 0.031-0.219 0.091-0.382 0.185l-0.050-0.069c0.066-0.034 0.147-0.088 0.25-0.166z"></path>
<path fill="#292f36" style="fill: var(--color2, #292f36)" d="M27.575 13.339l-0.072 0.022c-0.028-0.1-0.063-0.225-0.116-0.375-0.066-0.197-0.122-0.344-0.16-0.441l0.069-0.022c0.031 0.084 0.069 0.147 0.094 0.178 0.031 0.031 0.072 0.038 0.119 0.022 0.038-0.016 0.088-0.047 0.147-0.094l0.494-0.407-0.281-0.835-0.416-0.019c-0.131-0.009-0.235 0-0.306 0.028-0.072 0.025-0.116 0.066-0.134 0.125-0.012 0.056-0.003 0.141 0.028 0.244l-0.072 0.022c-0.038-0.131-0.081-0.266-0.125-0.4-0.038-0.103-0.069-0.188-0.1-0.253l0.072-0.025c0.063 0.109 0.197 0.166 0.394 0.172l2.374 0.106 0.019 0.053-1.892 1.576c-0.116 0.113-0.163 0.213-0.134 0.322zM29.123 11.44l-1.17-0.050 0.263 0.788 0.907-0.738z"></path>
<path fill="#292f36" style="fill: var(--color2, #292f36)" d="M27.9 16.754c0.044-0.019 0.066-0.041 0.066-0.072 0-0.019-0.003-0.031-0.012-0.044-0.009-0.016-0.025-0.041-0.053-0.078-0.066-0.084-0.116-0.172-0.153-0.263-0.034-0.088-0.053-0.191-0.053-0.303-0.003-0.25 0.047-0.463 0.144-0.647 0.103-0.181 0.247-0.322 0.441-0.419s0.425-0.147 0.697-0.153c0.281-0.003 0.525 0.041 0.738 0.141 0.21 0.097 0.375 0.231 0.491 0.41s0.178 0.378 0.178 0.604c0 0.097-0.009 0.188-0.028 0.263s-0.044 0.144-0.075 0.2c-0.031 0.059-0.072 0.125-0.125 0.197-0.022 0.031-0.038 0.056-0.038 0.075 0 0.044 0.078 0.075 0.225 0.091v0.084c-0.156-0.009-0.438-0.009-0.841 0v-0.084c0.131-0.022 0.238-0.050 0.322-0.078 0.084-0.025 0.156-0.066 0.219-0.116 0.084-0.069 0.156-0.163 0.206-0.281 0.050-0.116 0.072-0.231 0.072-0.357-0.006-0.159-0.059-0.297-0.166-0.419-0.106-0.119-0.26-0.21-0.45-0.275-0.197-0.063-0.419-0.094-0.679-0.091-0.294 0.003-0.532 0.041-0.719 0.106-0.188 0.069-0.322 0.166-0.41 0.294-0.091 0.131-0.131 0.297-0.125 0.497 0.003 0.147 0.044 0.272 0.119 0.378 0.031 0.047 0.059 0.072 0.091 0.084 0.025 0.016 0.066 0.019 0.116 0.019l0.353-0.003c0.1 0 0.172-0.016 0.222-0.031 0.044-0.019 0.081-0.053 0.094-0.109 0.019-0.047 0.028-0.128 0.028-0.235h0.069c-0.003 0.119-0.009 0.291-0.003 0.516 0.003 0.172 0.009 0.3 0.019 0.382h-0.072c-0.006-0.059-0.019-0.1-0.031-0.122-0.016-0.022-0.044-0.041-0.084-0.050-0.041-0.006-0.109-0.012-0.203-0.006l-0.722 0.012v-0.072c0.041-0.019 0.091-0.028 0.134-0.044z"></path>
<path fill="#292f36" style="fill: var(--color2, #292f36)" d="M27.368 20.554c-0.128-0.041-0.281-0.081-0.453-0.119 0.056-0.156 0.141-0.419 0.263-0.794 0.141-0.444 0.244-0.785 0.306-1.013l0.072 0.022c-0.022 0.088-0.031 0.15-0.031 0.194 0.006 0.044 0.022 0.075 0.059 0.103 0.034 0.025 0.097 0.053 0.181 0.078l1.729 0.544c0.088 0.028 0.15 0.041 0.194 0.041 0.047 0 0.081-0.016 0.109-0.053 0.025-0.034 0.053-0.094 0.084-0.172l0.072 0.022c-0.081 0.225-0.188 0.563-0.331 1.007-0.106 0.341-0.185 0.585-0.219 0.732-0.147-0.063-0.281-0.116-0.407-0.15-0.088-0.028-0.166-0.050-0.219-0.059l0.028-0.078c0.156 0.031 0.275 0.044 0.357 0.044s0.147-0.028 0.2-0.081c0.053-0.050 0.1-0.138 0.138-0.26l0.091-0.288c0.028-0.088 0.041-0.15 0.034-0.188-0.003-0.041-0.016-0.078-0.053-0.103-0.034-0.028-0.094-0.053-0.181-0.081l-0.823-0.26-0.072 0.235c-0.034 0.116-0.025 0.203 0.031 0.266 0.059 0.063 0.122 0.106 0.194 0.138s0.116 0.056 0.131 0.063l-0.025 0.081c-0.113-0.044-0.219-0.084-0.325-0.116l-0.166-0.050c-0.116-0.034-0.285-0.084-0.5-0.134l0.028-0.078c0.016 0.003 0.075 0.012 0.172 0.034 0.1 0.019 0.185 0.009 0.25-0.025 0.069-0.038 0.113-0.103 0.144-0.197l0.072-0.231-0.841-0.266c-0.088-0.025-0.15-0.038-0.194-0.038-0.047 0-0.081 0.016-0.103 0.053-0.028 0.034-0.053 0.094-0.081 0.178l-0.081 0.253c-0.044 0.147-0.063 0.263-0.044 0.347 0.012 0.091 0.059 0.163 0.134 0.225 0.075 0.056 0.191 0.125 0.347 0.197l-0.025 0.078c-0.056-0.041-0.141-0.066-0.247-0.1z"></path>
<path fill="#292f36" style="fill: var(--color2, #292f36)" d="M26.096 26.030c0.019-0.041 0.016-0.081-0.003-0.122-0.019-0.038-0.063-0.088-0.128-0.156l-1.314-1.254c-0.069-0.063-0.122-0.1-0.163-0.119-0.038-0.019-0.078-0.019-0.119 0s-0.091 0.056-0.153 0.119l-0.053-0.047c0.084-0.078 0.194-0.188 0.331-0.328 0.144-0.15 0.25-0.266 0.316-0.341l0.053 0.047c-0.056 0.069-0.094 0.122-0.109 0.156-0.019 0.041-0.016 0.081 0.003 0.122s0.063 0.088 0.131 0.156l1.31 1.254c0.069 0.063 0.122 0.103 0.163 0.119 0.038 0.019 0.078 0.019 0.119 0 0.041-0.016 0.091-0.056 0.153-0.119l0.053 0.050c-0.078 0.066-0.188 0.178-0.331 0.328-0.138 0.144-0.241 0.26-0.313 0.344l-0.053-0.050c0.053-0.066 0.091-0.119 0.106-0.16z"></path>
<path fill="#292f36" style="fill: var(--color2, #292f36)" d="M22.377 28.754c0.028-0.041 0.031-0.081 0.022-0.131-0.006-0.047-0.038-0.109-0.088-0.194l-1.107-1.88 0.072-0.047 2.527 1.264-0.979-1.661c-0.050-0.078-0.088-0.138-0.128-0.169s-0.088-0.044-0.134-0.041c-0.050 0.006-0.116 0.031-0.2 0.075l-0.041-0.063c0.078-0.034 0.188-0.097 0.325-0.178 0.125-0.075 0.219-0.131 0.285-0.181l0.038 0.063c-0.072 0.044-0.122 0.088-0.144 0.128-0.028 0.041-0.031 0.081-0.022 0.131 0.009 0.047 0.041 0.109 0.088 0.194l0.904 1.532c0.044 0.081 0.084 0.134 0.119 0.16 0.038 0.028 0.072 0.041 0.116 0.031 0.041-0.006 0.103-0.031 0.181-0.069l0.034 0.063c-0.072 0.034-0.169 0.088-0.3 0.163-0.094 0.053-0.172 0.109-0.241 0.153l-2.12-1.057 0.794 1.348c0.050 0.078 0.091 0.138 0.131 0.169 0.034 0.031 0.078 0.044 0.134 0.041 0.053-0.006 0.119-0.031 0.203-0.075l0.038 0.059c-0.081 0.038-0.188 0.1-0.328 0.181-0.125 0.075-0.219 0.131-0.285 0.181l-0.034-0.063c0.066-0.050 0.116-0.094 0.141-0.128z"></path>
<path fill="#292f36" style="fill: var(--color2, #292f36)" d="M19.922 29.339c0.031 0.138 0.072 0.291 0.125 0.45-0.2 0.034-0.535 0.106-1.010 0.206-0.472 0.1-0.801 0.178-0.998 0.225-0.022-0.172-0.044-0.325-0.078-0.463-0.025-0.122-0.047-0.219-0.075-0.291l0.081-0.019c0.056 0.185 0.113 0.313 0.16 0.397 0.050 0.088 0.113 0.141 0.194 0.166 0.078 0.028 0.197 0.022 0.344-0.009l0.191-0.038-0.438-2.033c-0.022-0.097-0.044-0.169-0.075-0.21s-0.069-0.066-0.122-0.072c-0.053-0.009-0.134 0-0.241 0.019l-0.012-0.072c0.125-0.019 0.303-0.053 0.525-0.103 0.238-0.053 0.416-0.094 0.529-0.125l0.012 0.072c-0.106 0.028-0.178 0.053-0.222 0.081-0.047 0.025-0.072 0.066-0.081 0.116s-0.003 0.125 0.019 0.222l0.438 2.033 0.191-0.041c0.147-0.031 0.253-0.075 0.316-0.134 0.063-0.056 0.1-0.134 0.109-0.228 0.006-0.094 0.003-0.235-0.019-0.422l0.081-0.019c0.012 0.072 0.031 0.169 0.056 0.291z"></path>
<path fill="#292f36" style="fill: var(--color2, #292f36)" d="M13.998 28.084c0.012-0.141 0.019-0.297 0.019-0.469 0.163 0.022 0.441 0.047 0.835 0.084 0.463 0.041 0.816 0.072 1.057 0.084l-0.006 0.072c-0.088-0.006-0.15 0-0.191 0.012s-0.072 0.038-0.088 0.075c-0.019 0.041-0.031 0.109-0.041 0.197l-0.163 1.808c-0.006 0.091-0.003 0.156 0.006 0.203 0.009 0.044 0.034 0.075 0.075 0.094 0.041 0.016 0.103 0.034 0.188 0.044l-0.003 0.072c-0.238-0.028-0.591-0.063-1.054-0.103-0.36-0.031-0.613-0.050-0.763-0.059 0.031-0.156 0.053-0.297 0.063-0.428 0.006-0.094 0.012-0.169 0.006-0.228l0.088 0.009c0.003 0.163 0.012 0.278 0.034 0.357 0.019 0.081 0.059 0.141 0.119 0.181 0.059 0.038 0.156 0.066 0.281 0.075l0.303 0.025c0.091 0.009 0.153 0.006 0.194-0.003s0.072-0.034 0.088-0.075c0.019-0.041 0.031-0.109 0.041-0.197l0.078-0.857-0.244-0.022c-0.119-0.009-0.203 0.016-0.253 0.088-0.044 0.072-0.081 0.144-0.094 0.219-0.019 0.075-0.025 0.125-0.031 0.147l-0.084-0.009c0.019-0.119 0.031-0.231 0.044-0.344l0.012-0.172c0.009-0.125 0.019-0.294 0.028-0.519l0.084 0.009c0 0.019 0.006 0.075 0.006 0.178 0.003 0.103 0.025 0.185 0.078 0.238 0.050 0.056 0.125 0.088 0.225 0.097l0.241 0.022 0.075-0.873c0.009-0.091 0.006-0.156-0.003-0.203-0.009-0.038-0.038-0.069-0.078-0.088-0.038-0.019-0.1-0.031-0.188-0.041l-0.266-0.022c-0.153-0.012-0.269-0.006-0.353 0.031-0.081 0.031-0.144 0.094-0.188 0.178s-0.081 0.213-0.116 0.385l-0.084-0.009c0-0.069 0.009-0.156 0.022-0.263z"></path>
<path fill="#292f36" style="fill: var(--color2, #292f36)" d="M10.486 26.427c0.066-0.012 0.141 0 0.222 0.034 0.094 0.041 0.156 0.1 0.191 0.175 0.038 0.081 0.041 0.194 0.019 0.341l-0.066 0.366c-0.025 0.128-0.038 0.225-0.041 0.303-0.006 0.072 0.012 0.138 0.044 0.197 0.031 0.056 0.091 0.1 0.175 0.138l0.319 0.134 0.328-0.779c0.034-0.084 0.053-0.147 0.056-0.191 0.006-0.044-0.012-0.081-0.044-0.113s-0.084-0.063-0.166-0.097l0.028-0.069c0.103 0.050 0.241 0.113 0.422 0.188 0.194 0.081 0.341 0.141 0.438 0.172l-0.025 0.066c-0.088-0.031-0.147-0.044-0.188-0.050-0.047 0-0.081 0.016-0.109 0.050-0.031 0.031-0.063 0.091-0.097 0.175l-0.701 1.673c-0.034 0.084-0.053 0.147-0.059 0.191-0.003 0.047 0.016 0.081 0.047 0.113s0.084 0.063 0.163 0.103l-0.025 0.066c-0.094-0.044-0.228-0.106-0.407-0.181-0.091-0.038-0.185-0.078-0.291-0.122s-0.178-0.072-0.219-0.088c-0.172-0.078-0.313-0.163-0.416-0.266-0.1-0.1-0.159-0.21-0.185-0.325-0.028-0.116-0.016-0.228 0.034-0.338 0.034-0.091 0.094-0.172 0.175-0.241 0.078-0.072 0.181-0.125 0.306-0.153 0.125-0.025 0.278-0.022 0.441 0.019l-0.038-0.022c-0.094-0.059-0.166-0.116-0.21-0.178-0.047-0.059-0.078-0.125-0.088-0.197-0.012-0.072-0.006-0.163 0.009-0.269l0.063-0.378c0.016-0.075 0.022-0.134 0.022-0.178 0-0.047-0.003-0.081-0.016-0.109-0.016-0.025-0.038-0.047-0.069-0.056-0.034-0.019-0.072-0.019-0.103-0.009s-0.075 0.031-0.131 0.063l-0.038-0.059c0.081-0.047 0.156-0.084 0.225-0.097zM10.708 28.016c-0.106 0.012-0.191 0.053-0.26 0.122-0.066 0.066-0.125 0.156-0.175 0.272-0.075 0.181-0.094 0.344-0.044 0.472 0.050 0.131 0.169 0.238 0.372 0.322 0.069 0.031 0.125 0.044 0.169 0.041 0.041 0 0.075-0.019 0.106-0.053 0.031-0.038 0.063-0.094 0.094-0.175l0.35-0.832-0.228-0.094c-0.147-0.063-0.278-0.088-0.385-0.075z"></path>
<path fill="#292f36" style="fill: var(--color2, #292f36)" d="M7.002 27.034c0.041 0.012 0.081 0.006 0.116-0.019 0.038-0.022 0.084-0.069 0.144-0.141l1.12-1.429c0.059-0.072 0.094-0.128 0.106-0.169 0.016-0.041 0.009-0.081-0.012-0.116-0.022-0.038-0.066-0.084-0.134-0.144l0.047-0.059c0.084 0.078 0.2 0.175 0.357 0.297 0.166 0.128 0.291 0.222 0.375 0.281l-0.047 0.056c-0.069-0.053-0.128-0.084-0.169-0.094-0.041-0.012-0.081-0.009-0.116 0.019-0.034 0.022-0.084 0.072-0.144 0.144l-1.12 1.426c-0.056 0.072-0.094 0.131-0.106 0.172-0.013 0.038-0.009 0.078 0.013 0.116 0.022 0.034 0.069 0.084 0.134 0.141l-0.044 0.059c-0.078-0.069-0.197-0.166-0.363-0.3-0.156-0.119-0.281-0.213-0.369-0.275l0.044-0.059c0.075 0.050 0.128 0.081 0.169 0.094z"></path>
<path fill="#292f36" style="fill: var(--color2, #292f36)" d="M4.119 23.856c-0.019-0.2 0.028-0.403 0.128-0.594 0.109-0.197 0.269-0.372 0.491-0.535 0.219-0.156 0.438-0.26 0.666-0.3s0.438-0.028 0.635 0.050c0.197 0.075 0.36 0.203 0.491 0.388 0.138 0.188 0.213 0.385 0.231 0.585s-0.025 0.4-0.128 0.594c-0.109 0.197-0.269 0.369-0.491 0.535-0.219 0.156-0.438 0.26-0.666 0.3-0.222 0.041-0.438 0.025-0.635-0.050s-0.36-0.206-0.491-0.385c-0.138-0.191-0.213-0.388-0.231-0.588zM4.788 24.651c0.156 0.031 0.335 0.019 0.532-0.044s0.394-0.166 0.597-0.319c0.206-0.147 0.366-0.306 0.479-0.475 0.116-0.172 0.178-0.341 0.188-0.5 0.013-0.163-0.028-0.303-0.113-0.425-0.094-0.125-0.213-0.206-0.375-0.238-0.156-0.031-0.335-0.016-0.529 0.047-0.197 0.063-0.394 0.166-0.6 0.313-0.203 0.147-0.366 0.306-0.475 0.482-0.119 0.169-0.181 0.335-0.194 0.5-0.013 0.16 0.028 0.303 0.113 0.422 0.094 0.125 0.219 0.206 0.378 0.238z"></path>
<path fill="#292f36" style="fill: var(--color2, #292f36)" d="M4.463 18.48c0.053 0.041 0.094 0.106 0.122 0.197 0.028 0.094 0.025 0.185-0.009 0.26-0.038 0.078-0.122 0.156-0.25 0.231l-0.325 0.185c-0.113 0.066-0.197 0.119-0.256 0.163-0.056 0.047-0.097 0.1-0.119 0.163-0.025 0.063-0.025 0.134 0.003 0.222l0.103 0.335 0.804-0.25c0.088-0.025 0.147-0.053 0.181-0.078 0.038-0.028 0.053-0.063 0.059-0.103 0.003-0.041-0.009-0.109-0.031-0.194l0.072-0.022c0.025 0.106 0.066 0.26 0.128 0.447 0.063 0.2 0.113 0.347 0.147 0.441l-0.072 0.022c-0.031-0.084-0.056-0.141-0.084-0.172-0.025-0.031-0.063-0.053-0.106-0.053s-0.113 0.006-0.197 0.038l-1.733 0.538c-0.088 0.025-0.147 0.053-0.181 0.078-0.038 0.028-0.053 0.063-0.059 0.103-0.003 0.047 0.009 0.109 0.031 0.194l-0.072 0.022c-0.022-0.1-0.063-0.241-0.119-0.428-0.028-0.091-0.063-0.194-0.1-0.3-0.034-0.106-0.063-0.181-0.075-0.222-0.056-0.185-0.075-0.344-0.063-0.488 0.016-0.144 0.059-0.26 0.131-0.353 0.069-0.094 0.163-0.156 0.281-0.191 0.088-0.028 0.188-0.034 0.294-0.022s0.21 0.056 0.316 0.138c0.106 0.081 0.197 0.197 0.272 0.353l-0.003-0.044c-0.016-0.113-0.019-0.203 0-0.278 0.016-0.075 0.047-0.138 0.094-0.191s0.119-0.113 0.213-0.166l0.332-0.197c0.066-0.034 0.119-0.072 0.15-0.097 0.031-0.028 0.059-0.053 0.072-0.081 0.016-0.028 0.016-0.059 0.006-0.091-0.016-0.038-0.031-0.066-0.059-0.084-0.025-0.016-0.072-0.041-0.134-0.063l0.022-0.066c0.091 0.031 0.166 0.066 0.216 0.106zM3.396 19.678c-0.075-0.072-0.166-0.113-0.26-0.122s-0.2 0.006-0.322 0.044c-0.191 0.059-0.322 0.153-0.391 0.275-0.072 0.119-0.072 0.285-0.009 0.485 0.022 0.072 0.047 0.125 0.075 0.156s0.066 0.050 0.113 0.050c0.044 0 0.109-0.012 0.191-0.038l0.857-0.266-0.072-0.238c-0.044-0.16-0.106-0.275-0.181-0.347z"></path>
<path fill="#292f36" style="fill: var(--color2, #292f36)" d="M4.119 14.245c0.169-0.078 0.272-0.219 0.316-0.435 0.016-0.081 0.016-0.159-0.006-0.238-0.025-0.075-0.063-0.141-0.125-0.2-0.063-0.056-0.147-0.097-0.26-0.116-0.094-0.019-0.178-0.009-0.26 0.022s-0.159 0.081-0.238 0.147c-0.075 0.069-0.163 0.156-0.263 0.269-0.113 0.125-0.21 0.228-0.294 0.3-0.084 0.075-0.178 0.128-0.281 0.169s-0.219 0.044-0.347 0.022c-0.134-0.028-0.247-0.075-0.328-0.156-0.078-0.081-0.138-0.175-0.163-0.285-0.028-0.113-0.028-0.228-0.006-0.353 0.012-0.075 0.031-0.134 0.053-0.188s0.047-0.094 0.072-0.125c0.028-0.031 0.053-0.066 0.091-0.103 0.044-0.050 0.066-0.084 0.075-0.113 0.003-0.022-0.003-0.038-0.028-0.056-0.022-0.019-0.063-0.031-0.116-0.050l0.016-0.081c0.138 0.038 0.378 0.091 0.732 0.156l-0.016 0.081c-0.125-0.012-0.241-0.009-0.357 0.019-0.109 0.022-0.21 0.072-0.291 0.147-0.078 0.072-0.131 0.175-0.156 0.3-0.016 0.084-0.012 0.159 0.009 0.235 0.022 0.078 0.063 0.134 0.116 0.185 0.059 0.047 0.125 0.078 0.206 0.097 0.128 0.022 0.241 0.006 0.335-0.056s0.185-0.144 0.269-0.238c0.084-0.094 0.138-0.156 0.169-0.188 0.125-0.134 0.228-0.238 0.313-0.313s0.178-0.128 0.281-0.166c0.103-0.034 0.213-0.041 0.335-0.016 0.147 0.025 0.269 0.084 0.357 0.169 0.091 0.088 0.147 0.191 0.178 0.316s0.031 0.26 0.006 0.403c-0.022 0.116-0.050 0.203-0.091 0.275-0.034 0.072-0.084 0.134-0.138 0.194-0.044 0.047-0.069 0.084-0.075 0.109-0.006 0.022 0.003 0.041 0.025 0.059 0.022 0.016 0.063 0.034 0.116 0.047l-0.013 0.081c-0.128-0.034-0.416-0.094-0.857-0.175l0.013-0.078c0.25 0.022 0.457 0 0.625-0.075z"></path>
<path fill="#292f36" style="fill: var(--color2, #292f36)" d="M3.234 10.48c-0.125-0.066-0.266-0.128-0.428-0.191 0.1-0.175 0.266-0.479 0.488-0.91 0.222-0.428 0.378-0.735 0.463-0.916 0.15 0.094 0.281 0.175 0.403 0.238 0.106 0.056 0.2 0.097 0.272 0.128l-0.041 0.075c-0.178-0.072-0.313-0.116-0.407-0.128-0.094-0.019-0.178 0-0.25 0.044s-0.141 0.134-0.21 0.269l-0.088 0.178 1.842 0.96c0.091 0.047 0.163 0.072 0.21 0.075 0.050 0.003 0.094-0.009 0.134-0.044 0.041-0.038 0.084-0.103 0.138-0.197l0.069 0.034c-0.069 0.113-0.153 0.269-0.26 0.475-0.113 0.213-0.191 0.378-0.241 0.482l-0.069-0.038c0.047-0.097 0.078-0.172 0.081-0.222 0.009-0.053-0.003-0.097-0.041-0.138-0.034-0.041-0.094-0.081-0.181-0.131l-1.845-0.963-0.094 0.175c-0.072 0.134-0.103 0.241-0.097 0.325 0.003 0.084 0.041 0.159 0.106 0.228 0.066 0.066 0.178 0.156 0.341 0.26l-0.041 0.075c-0.059-0.038-0.147-0.084-0.256-0.144z"></path>
<path fill="#292f36" style="fill: var(--color2, #292f36)" d="M6.386 5.351c0.075-0.075 0.138-0.147 0.185-0.2l0.053 0.053c-0.028 0.041-0.041 0.097-0.038 0.166 0.006 0.066 0.022 0.16 0.059 0.272l0.407 1.21 0.472 0.469c0.069 0.063 0.116 0.106 0.156 0.125 0.041 0.016 0.081 0.016 0.122 0 0.041-0.019 0.088-0.059 0.156-0.119l0.053 0.056c-0.084 0.075-0.197 0.181-0.335 0.319-0.147 0.147-0.256 0.266-0.322 0.341l-0.053-0.053c0.056-0.069 0.097-0.116 0.116-0.156s0.019-0.081-0.006-0.122c-0.016-0.041-0.063-0.094-0.125-0.156l-0.391-0.388-1.492-0.438c-0.088-0.025-0.156-0.034-0.2-0.031-0.044 0.006-0.075 0.019-0.1 0.041l-0.053-0.053c0.072-0.063 0.153-0.134 0.235-0.219 0.163-0.169 0.285-0.291 0.35-0.372l0.053 0.056c-0.119 0.119-0.147 0.213-0.078 0.278 0.025 0.028 0.063 0.047 0.116 0.063l1.254 0.391-0.332-0.988c-0.047-0.141-0.097-0.241-0.15-0.291-0.050-0.047-0.103-0.063-0.163-0.044-0.056 0.019-0.125 0.063-0.203 0.138l-0.053-0.053c0.106-0.097 0.203-0.197 0.306-0.294z"></path>
<path fill="#292f36" style="fill: var(--color2, #292f36)" d="M9.088 3.553c-0.028 0.031-0.041 0.072-0.031 0.116s0.031 0.106 0.075 0.188l0.863 1.598c0.044 0.081 0.078 0.134 0.116 0.166 0.031 0.031 0.069 0.041 0.109 0.034 0.041-0.003 0.103-0.031 0.178-0.072l0.238-0.128c0.134-0.072 0.228-0.147 0.278-0.222 0.047-0.078 0.066-0.163 0.053-0.266-0.016-0.103-0.053-0.231-0.125-0.4l0.075-0.041c0.031 0.072 0.075 0.16 0.134 0.269 0.066 0.119 0.147 0.253 0.244 0.4-0.147 0.072-0.397 0.2-0.741 0.388-0.41 0.225-0.722 0.394-0.926 0.513l-0.038-0.063c0.075-0.044 0.128-0.084 0.156-0.116s0.041-0.072 0.031-0.116c-0.009-0.044-0.031-0.106-0.075-0.188l-0.873-1.598c-0.044-0.078-0.078-0.134-0.116-0.166-0.031-0.031-0.072-0.038-0.109-0.034-0.047 0.003-0.103 0.028-0.185 0.066l-0.031-0.066c0.094-0.041 0.231-0.113 0.416-0.216 0.172-0.091 0.306-0.169 0.4-0.225l0.038 0.063c-0.078 0.044-0.125 0.084-0.156 0.116z"></path>
<path fill="#292f36" style="fill: var(--color2, #292f36)" d="M14.524 3.837c0.028 0.134 0.069 0.285 0.116 0.457-0.163 0.025-0.435 0.075-0.819 0.15-0.46 0.091-0.804 0.163-1.041 0.216l-0.012-0.072c0.084-0.022 0.147-0.041 0.185-0.066 0.034-0.025 0.056-0.059 0.059-0.1 0.006-0.044 0-0.113-0.016-0.2l-0.35-1.783c-0.016-0.088-0.034-0.15-0.063-0.191-0.025-0.041-0.053-0.063-0.097-0.066-0.041-0.009-0.106-0.006-0.191 0.006l-0.016-0.069c0.238-0.041 0.585-0.103 1.041-0.194 0.353-0.072 0.604-0.119 0.744-0.156 0.016 0.163 0.038 0.303 0.059 0.428 0.019 0.094 0.034 0.166 0.053 0.219l-0.081 0.019c-0.047-0.153-0.094-0.263-0.131-0.335-0.041-0.072-0.1-0.116-0.166-0.138-0.072-0.025-0.166-0.025-0.297 0.003l-0.297 0.059c-0.084 0.016-0.147 0.034-0.185 0.056-0.034 0.022-0.056 0.053-0.066 0.1-0.003 0.044 0 0.109 0.019 0.2l0.163 0.848 0.238-0.050c0.122-0.022 0.191-0.075 0.219-0.156 0.028-0.078 0.034-0.156 0.031-0.231s-0.009-0.125-0.009-0.147l0.081-0.019c0.012 0.122 0.031 0.231 0.053 0.341l0.034 0.169c0.025 0.122 0.063 0.291 0.122 0.504l-0.081 0.019c-0.003-0.019-0.022-0.072-0.053-0.169-0.031-0.1-0.075-0.166-0.144-0.206-0.066-0.041-0.141-0.050-0.241-0.031l-0.235 0.044 0.169 0.863c0.019 0.088 0.034 0.15 0.059 0.191 0.022 0.038 0.053 0.059 0.097 0.069 0.041 0.003 0.106 0 0.191-0.019l0.263-0.053c0.15-0.031 0.26-0.072 0.332-0.125s0.113-0.131 0.131-0.222c0.016-0.094 0.016-0.228 0.003-0.403l0.081-0.019c0.012 0.069 0.025 0.153 0.047 0.26z"></path>
<path fill="#292f36" style="fill: var(--color2, #292f36)" d="M11.515 20.888c-0.203-0.278-0.382-0.582-0.538-0.916s-0.281-0.676-0.375-1.023c-0.206-1.532-0.21-3.018-0.019-4.46s0.504-2.862 0.932-4.263c0.072-0.156 0.228-0.231 0.469-0.231s0.479 0.053 0.719 0.159c0.241 0.106 0.438 0.25 0.594 0.428s0.191 0.366 0.106 0.557c-0.134 0.288-0.263 0.676-0.391 1.157-0.131 0.488-0.26 1.023-0.375 1.607-0.122 0.585-0.225 1.201-0.313 1.839-0.091 0.638-0.156 1.254-0.197 1.839s-0.050 1.116-0.028 1.589c0.022 0.475 0.094 0.851 0.216 1.123 0.563-0.757 1.076-1.536 1.545-2.346 0.469-0.807 0.904-1.623 1.317-2.458 0.41-0.832 0.804-1.67 1.173-2.524 0.372-0.848 0.738-1.686 1.095-2.511 0.178-0.422 0.357-0.863 0.532-1.326 0.175-0.469 0.4-0.866 0.691-1.201 0.122-0.109 0.216-0.144 0.278-0.109 0.066 0.038 0.109 0.103 0.131 0.206 0.025 0.103 0.038 0.21 0.038 0.322s0 0.2 0 0.26c-0.084 0.547-0.156 1.091-0.216 1.633-0.056 0.541-0.188 1.057-0.375 1.564-0.31 0.788-0.629 1.57-0.96 2.352-0.328 0.776-0.682 1.545-1.057 2.299s-0.785 1.486-1.22 2.195c-0.435 0.716-0.91 1.395-1.426 2.036-0.407 0.513-0.813 0.788-1.21 0.819-0.416 0.034-0.785-0.175-1.135-0.616z"></path>
<path fill="#292f36" style="fill: var(--color2, #292f36)" d="M18.909 18.858c-0.241-0.335-0.479-0.672-0.71-1.020-0.231-0.35-0.347-0.729-0.347-1.148 0-0.466 0.134-0.907 0.4-1.323 0.269-0.41 0.579-0.744 0.926-0.995 0.144-0.094 0.291-0.175 0.438-0.231 0.147-0.059 0.306-0.053 0.479 0.016 0.069 0.038 0.147 0.063 0.222 0.081s0.147 0.041 0.206 0.063c0.056 0.022 0.122 0.059 0.194 0.106 0.072 0.050 0.109 0.113 0.109 0.197 0 0.335 0.006 0.607 0.025 0.816s0.044 0.391 0.081 0.541c0.034 0.153 0.072 0.281 0.106 0.394 0.034 0.116 0.072 0.235 0.106 0.366 0.022 0.119 0.019 0.222-0.016 0.303-0.038 0.084-0.125 0.094-0.269 0.034-0.263-0.094-0.46-0.285-0.585-0.575s-0.219-0.547-0.275-0.791c-0.016-0.047-0.041-0.128-0.091-0.25-0.050-0.119-0.075-0.203-0.091-0.247-0.094-0.025-0.21 0.006-0.338 0.097-0.131 0.088-0.25 0.213-0.347 0.366-0.103 0.156-0.172 0.335-0.197 0.541-0.031 0.203 0.009 0.407 0.116 0.61 0.050 0.072 0.116 0.163 0.206 0.26 0.088 0.103 0.178 0.206 0.266 0.313 0.091 0.106 0.178 0.216 0.269 0.313 0.088 0.097 0.166 0.181 0.222 0.241 0.072 0.072 0.122 0.113 0.144 0.116 0.022 0.006 0.084-0.009 0.178-0.044 0.119-0.059 0.303-0.138 0.55-0.231 0.244-0.094 0.504-0.194 0.769-0.288 0.269-0.094 0.529-0.172 0.772-0.241 0.247-0.066 0.435-0.097 0.569-0.097 0.084 0 0.141 0.031 0.178 0.088 0.034 0.038 0.031 0.084-0.019 0.144s-0.113 0.122-0.188 0.178c-0.075 0.059-0.16 0.113-0.241 0.16-0.084 0.050-0.138 0.078-0.16 0.091-0.206 0.122-0.46 0.253-0.772 0.407-0.313 0.147-0.582 0.294-0.81 0.438-0.022 0.022-0.066 0.050-0.131 0.072-0.069 0.022-0.119 0.047-0.153 0.069 0.144 0.322 0.247 0.604 0.303 0.835 0.059 0.235 0.081 0.457 0.063 0.676-0.019 0.213-0.063 0.432-0.134 0.657-0.072 0.222-0.169 0.479-0.285 0.763-0.169 0.275-0.341 0.541-0.513 0.791-0.175 0.25-0.366 0.475-0.585 0.682-0.216 0.206-0.45 0.366-0.701 0.482-0.25 0.122-0.529 0.178-0.826 0.178-0.172 0-0.331-0.022-0.488-0.063s-0.285-0.128-0.394-0.26c-0.275-0.297-0.428-0.622-0.463-0.976-0.038-0.353-0.006-0.701 0.088-1.051 0.072-0.213 0.163-0.41 0.269-0.591 0.263-0.457 0.554-0.841 0.869-1.157 0.322-0.313 0.654-0.616 1.001-0.904zM19.522 19.669c-0.134 0.134-0.313 0.322-0.541 0.566-0.228 0.247-0.438 0.513-0.638 0.801-0.197 0.285-0.357 0.569-0.482 0.851s-0.156 0.522-0.1 0.729c0.241-0.106 0.488-0.285 0.738-0.532 0.25-0.244 0.472-0.513 0.666-0.807 0.191-0.294 0.325-0.585 0.4-0.873s0.063-0.535-0.044-0.735z"></path>
<path fill="#292f36" style="fill: var(--color2, #292f36)" d="M15.997 26.127c-5.582 0-10.127-4.544-10.127-10.13 0-5.582 4.544-10.127 10.127-10.127 5.586 0 10.13 4.544 10.13 10.127 0 5.586-4.544 10.13-10.13 10.13zM15.997 6.314c-5.339 0-9.683 4.344-9.683 9.683 0 5.342 4.344 9.686 9.683 9.686 5.342 0 9.686-4.344 9.686-9.686 0-5.339-4.344-9.683-9.686-9.683z"></path>
</symbol>
<symbol id="icon-client-3" viewBox="0 0 122 32">
<path fill="#292f36" style="fill: var(--color2, #292f36)" d="M26.026 31.995h-20.064c-3.292 0-5.962-2.671-5.962-5.97v-20.064c0-3.292 2.671-5.962 5.962-5.962h20.064c3.299 0 5.97 2.671 5.97 5.962v20.064c0 3.299-2.671 5.97-5.97 5.97z"></path>
<path fill="#fff" style="fill: var(--color1, #fff)" d="M21.762 16.293c0.569 0.711 0.86 1.549 0.86 2.491 0 1.384-0.464 2.469-1.384 3.239-0.928 0.771-2.252 1.167-3.972 1.167h-7.511v-16.166h7.331c1.653 0 2.918 0.359 3.815 1.077s1.347 1.743 1.347 3.060c0 0.98-0.262 1.788-0.778 2.439s-1.197 1.070-2.035 1.272c0.987 0.232 1.758 0.703 2.327 1.421zM13.652 13.638h2.566c1.361 0 2.035-0.584 2.035-1.743s-0.696-1.736-2.080-1.736h-2.521v3.479zM18.62 18.238c0-0.584-0.195-1.032-0.569-1.361-0.382-0.322-0.928-0.486-1.623-0.486h-2.76v3.628h2.79c1.436-0.007 2.162-0.591 2.162-1.78z"></path>
<path fill="#292f36" style="fill: var(--color2, #292f36)" d="M50.54 23.191l-3.501-6.104h-0.883v6.104h-3.92v-16.166h6.68c1.279 0 2.364 0.217 3.239 0.658 0.89 0.449 1.549 1.055 1.997 1.825 0.441 0.771 0.658 1.646 0.658 2.641 0 1.182-0.329 2.177-0.972 3-0.651 0.823-1.578 1.384-2.82 1.698l3.838 6.351h-4.316v-0.007zM46.157 14.416h2.416c0.778 0 1.347-0.172 1.713-0.516 0.359-0.344 0.554-0.853 0.554-1.519 0-0.643-0.194-1.145-0.569-1.519-0.367-0.359-0.935-0.546-1.698-0.546h-2.416v4.099z"></path>
<path fill="#292f36" style="fill: var(--color2, #292f36)" d="M72.512 20.251h-6.059l-1.002 2.947h-4.114l5.925-16.046h4.496l5.925 16.046h-4.152l-1.017-2.947zM71.502 17.266l-2.005-5.94-2.042 5.94h4.047z"></path>
<path fill="#292f36" style="fill: var(--color2, #292f36)" d="M99.263 23.191h-3.912l-6.538-9.927v9.927h-3.912v-16.166h3.912l6.538 10.017v-10.017h3.912v16.166z"></path>
<path fill="#292f36" style="fill: var(--color2, #292f36)" d="M121.204 19.301c-0.681 1.219-1.661 2.177-2.925 2.865-1.279 0.688-2.775 1.032-4.496 1.032h-6.104v-16.166h6.104c1.743 0 3.247 0.337 4.503 1.010 1.272 0.666 2.237 1.608 2.918 2.835 0.681 1.219 1.017 2.618 1.017 4.212 0 1.571-0.344 2.977-1.017 4.212zM116.993 18.485c0.845-0.808 1.264-1.953 1.264-3.411 0-1.466-0.419-2.596-1.264-3.404s-2.027-1.212-3.561-1.212h-1.848v9.239h1.848c1.534 0 2.716-0.396 3.561-1.212z"></path>
</symbol>
<symbol id="icon-client-4" viewBox="0 0 105 32">
<path d="M14.699 6.405l0.777-0.16c0.196 0 0.363 0.036 0.472 0.123 0.116 0.080 0.182 0.167 0.182 0.24s-0.022 0.182-0.058 0.32c-0.029 0.131-0.32 1.525-0.857 4.147s-0.937 4.583-1.184 5.868c1.206-1.641 2.614-3.653 4.219-6.042 1.605-2.397 2.549-3.987 2.818-4.771 0.087-0.247 0.203-0.436 0.334-0.574 0.138-0.131 0.261-0.218 0.363-0.232 0.102-0.022 0.269-0.044 0.487-0.044s0.479 0.051 0.777 0.145c0.305 0.094 0.458 0.247 0.458 0.472 0 0.421-0.625 1.634-1.852 3.624-1.235 1.99-2.658 4.103-4.256 6.34-1.59 2.244-2.919 4.016-3.987 5.323-0.189 0.225-0.428 0.349-0.697 0.349s-0.559-0.051-0.857-0.145c-0.305-0.094-0.458-0.261-0.458-0.508 0-0.777 0.683-4.532 2.055-11.235-1.177 1.511-2.593 3.624-4.263 6.333-1.743 2.796-2.731 4.539-2.956 5.207-0.123 0.399-0.269 0.639-0.436 0.704-0.116 0.051-0.24 0.073-0.363 0.073l-0.842 0.087c-0.16 0-0.305-0.036-0.45-0.131-0.138-0.094-0.211-0.189-0.211-0.291 0-0.283 0.392-1.133 1.169-2.542s1.699-2.941 2.752-4.604c1.046-1.656 2.135-3.261 3.275-4.829 1.14-1.561 2.019-2.622 2.643-3.152 0.123-0.109 0.269-0.167 0.436-0.167l0.508 0.073z"></path>
<path d="M27.154 13.435c0.545 0 0.813 0.189 0.813 0.552 0 0.196-0.044 0.341-0.138 0.436s-0.291 0.392-0.588 0.922c-0.305 0.516-0.632 1.184-0.995 1.997s-0.603 1.503-0.704 2.077c-0.022 0.073-0.036 0.167-0.036 0.298 0 0.399 0.109 0.581 0.327 0.581s0.465-0.102 0.755-0.298c0.291-0.211 0.552-0.414 0.777-0.654 0.225-0.232 0.443-0.465 0.661-0.704s0.341-0.385 0.385-0.414c0.044-0.036 0.102-0.051 0.189-0.051 0.131 0 0.218 0.102 0.247 0.305 0.029 0.211 0.044 0.421 0.044 0.646s-0.022 0.37-0.065 0.458c-0.203 0.399-0.654 0.886-1.358 1.46-0.69 0.566-1.336 0.85-1.903 0.85-0.574 0-0.995-0.174-1.256-0.516s-0.407-0.741-0.407-1.155c0-0.421 0.073-0.784 0.218-1.111-0.588 0.77-1.264 1.416-2.019 1.954-0.77 0.53-1.38 0.799-1.866 0.799s-0.871-0.145-1.184-0.436c-0.392-0.363-0.581-0.864-0.581-1.503 0-0.646 0.145-1.285 0.436-1.939 0.291-0.646 0.668-1.242 1.133-1.772 0.465-0.537 0.98-1.031 1.54-1.46 1.177-0.93 2.266-1.38 3.261-1.38 0.385 0 0.69 0.058 0.93 0.182s0.392 0.29 0.458 0.479c0.167-0.261 0.312-0.414 0.436-0.487 0.094-0.080 0.269-0.116 0.494-0.116zM25.745 14.619c-1.213 0-2.462 0.675-3.762 2.019-0.458 0.487-0.879 1.060-1.271 1.736-0.399 0.668-0.581 1.126-0.581 1.38 0 0.247 0.073 0.37 0.218 0.37 0.196 0 0.741-0.392 1.656-1.169s1.511-1.358 1.801-1.736c0.334-0.414 0.98-1.285 1.939-2.6z"></path>
<path d="M35.222 7.822l0.436 0.102c0.065 0 0.123 0.029 0.167 0.094 0.051 0.058 0.073 0.123 0.073 0.174s-0.073 0.203-0.232 0.458c-0.153 0.247-0.32 0.53-0.523 0.835-0.211 0.312-0.312 0.487-0.327 0.523 0.552-0.044 0.944-0.065 1.176-0.065 0.225 0 0.378 0.022 0.472 0.051 0.087 0.036 0.189 0.123 0.291 0.269 0.116 0.145 0.211 0.261 0.305 0.334s0.131 0.189 0.131 0.334c0 0.145-0.094 0.276-0.269 0.37-0.174 0.102-0.37 0.167-0.581 0.189-1.649 0.167-2.549 0.247-2.716 0.261-0.566 0.879-1.38 2.244-2.404 4.103-1.024 1.852-1.576 3.028-1.641 3.493-0.029 0.218-0.036 0.385-0.036 0.516 0 0.283 0.145 0.414 0.436 0.414s0.61-0.109 0.959-0.327c0.356-0.232 0.69-0.472 0.98-0.726 0.799-0.704 1.22-1.068 1.271-1.068 0.189 0 0.283 0.32 0.283 0.951 0 0.341-0.16 0.654-0.479 0.93-0.712 0.617-1.314 1.082-1.801 1.394s-0.973 0.465-1.474 0.465c-0.102 0-0.211-0.007-0.298-0.029-0.574-0.109-0.988-0.312-1.249-0.625-0.269-0.312-0.392-0.726-0.392-1.242 0-0.523 0.152-1.162 0.465-1.91s0.697-1.547 1.162-2.382c0.77-1.38 1.532-2.665 2.295-3.871l-0.407 0.058c-0.821 0.087-1.293 0.131-1.431 0.131h-0.094c-0.203 0-0.407-0.044-0.588-0.123-0.189-0.080-0.291-0.189-0.291-0.298 0-0.131 0.051-0.24 0.152-0.356s0.167-0.211 0.189-0.269c0.051-0.16 0.24-0.334 0.559-0.516 0.32-0.189 0.559-0.29 0.726-0.305 0.167-0.007 0.32-0.022 0.479-0.029 0.152-0.015 0.32-0.015 0.508-0.022 0.182-0.007 0.327-0.007 0.428-0.022l0.959-0.044c0.588-0.886 1.002-1.467 1.22-1.721 0.232-0.254 0.356-0.392 0.385-0.414 0.029-0.015 0.102-0.036 0.218-0.036l0.508-0.051z"></path>
<path d="M41.599 18.178c0.131 0 0.218 0.102 0.247 0.305 0.029 0.211 0.044 0.414 0.044 0.646 0 0.225-0.022 0.37-0.065 0.458-0.203 0.392-0.654 0.879-1.344 1.452-0.697 0.566-1.358 0.857-1.983 0.857-0.385 0-0.733-0.116-1.068-0.341-0.32-0.225-0.487-0.632-0.487-1.206 0-0.566 0.153-1.14 0.458-1.685-1.765 2.208-3.13 3.304-4.14 3.304-0.392 0-0.712-0.145-0.966-0.428-0.247-0.276-0.363-0.566-0.363-0.879 0-0.298 0.044-0.61 0.131-0.93 0.080-0.327 0.174-0.617 0.269-0.871 0.094-0.261 0.24-0.574 0.421-0.944 0.189-0.37 0.334-0.646 0.414-0.821 0.087-0.174 0.24-0.421 0.45-0.77 0.203-0.341 0.465-0.806 0.799-1.387 0.327-0.581 0.596-1.017 0.813-1.293 0.218-0.283 0.428-0.428 0.632-0.428 0.211 0 0.385 0.087 0.545 0.247 0.153 0.167 0.24 0.312 0.24 0.421 0 0.102-0.24 0.581-0.719 1.431-1.402 2.535-2.106 4.009-2.106 4.437 0 0.102 0.044 0.152 0.116 0.152 0.341 0 1.191-0.733 2.542-2.208 1.344-1.474 2.135-2.418 2.353-2.832s0.414-0.763 0.617-1.046c0.196-0.276 0.356-0.458 0.458-0.516 0.305-0.196 0.697-0.305 1.184-0.327 0.080 0 0.131 0 0.174 0.015 0.044 0.007 0.094 0.073 0.145 0.174s0.087 0.196 0.087 0.269c-0.065 0.196-0.349 0.726-0.857 1.59-0.494 0.857-0.777 1.344-0.828 1.445-0.835 1.736-1.249 2.861-1.249 3.384 0 0.298 0.109 0.443 0.341 0.443 0.414-0.051 0.908-0.385 1.489-0.98 0.218-0.218 0.428-0.45 0.632-0.675 0.211-0.232 0.341-0.363 0.385-0.392 0.051-0.058 0.116-0.073 0.189-0.073z"></path>
<path d="M44.678 15.716c1.67-1.895 3.101-2.847 4.27-2.847 0.291 0 0.53 0.080 0.712 0.254 0.189 0.182 0.283 0.399 0.283 0.675 0 0.283-0.196 0.741-0.588 1.387-0.399 0.646-0.763 1.198-1.089 1.641-0.182 0.225-0.378 0.341-0.603 0.341-0.218 0-0.392-0.080-0.516-0.247s-0.189-0.356-0.189-0.574c0-0.487 0.261-1.046 0.784-1.656l-0.022-0.022c-0.232 0.022-0.806 0.487-1.736 1.38-0.922 0.901-1.714 1.707-2.368 2.418-0.639 0.712-1.344 1.576-2.113 2.6-0.218 0.298-0.407 0.458-0.559 0.458s-0.356-0.051-0.603-0.145c-0.247-0.094-0.399-0.167-0.458-0.211-0.051-0.044-0.080-0.116-0.080-0.218 0-0.094 0.029-0.218 0.080-0.341 0.058-0.138 0.167-0.32 0.312-0.559s0.385-0.632 0.697-1.169c0.312-0.545 0.784-1.358 1.438-2.447s1.038-1.75 1.176-1.983c0.269-0.465 0.487-0.806 0.661-1.017 0.32-0.399 0.857-0.603 1.62-0.603 0.16 0 0.254 0.109 0.254 0.327 0 0.327-0.312 0.959-0.922 1.874l-0.443 0.683z"></path>
<path d="M56.109 13.559c0 0.472-0.182 0.886-0.566 1.235-0.385 0.356-0.813 0.53-1.3 0.53-0.153 0-0.254-0.044-0.305-0.116-0.058-0.073-0.080-0.174-0.080-0.29 0-0.109 0.015-0.232 0.044-0.349-0.254 0.080-0.537 0.218-0.85 0.392s-0.69 0.436-1.147 0.792c-0.458 0.349-0.683 0.596-0.683 0.777 0 0.051 0.080 0.080 0.247 0.080s0.421-0.065 0.763-0.174c0.349-0.116 0.596-0.182 0.726-0.182 0.138 0 0.232 0.015 0.269 0.022 0.094 0.051 0.189 0.16 0.305 0.327 0.102 0.16 0.153 0.298 0.153 0.392s-0.094 0.218-0.276 0.37c-0.189 0.16-0.392 0.269-0.625 0.356-0.24 0.080-0.392 0.145-0.465 0.182-1.496 0.842-2.237 1.416-2.237 1.721 0 0.552 0.465 0.835 1.409 0.835 0.596 0 1.213-0.189 1.808-0.574 0.523-0.32 0.988-0.654 1.402-0.995 0.414-0.334 0.675-0.537 0.792-0.625 0.109-0.080 0.196-0.109 0.247-0.109 0.189 0 0.276 0.203 0.276 0.617s-0.015 0.69-0.073 0.813c-0.051 0.131-0.182 0.291-0.421 0.487-1.511 1.235-2.956 1.852-4.299 1.852-0.726 0-1.3-0.102-1.736-0.298-0.799-0.363-1.191-0.915-1.191-1.656 0-0.98 0.675-1.721 2.033-2.222-0.269-0.123-0.45-0.269-0.523-0.465-0.080-0.189-0.109-0.487-0.109-0.901s0.196-0.85 0.581-1.322c0.378-0.465 0.857-0.85 1.416-1.14 1.242-0.668 2.368-1.002 3.341-1.002 0.24 0 0.465 0.051 0.712 0.167 0.254 0.109 0.363 0.269 0.363 0.472z"></path>
<path d="M80.307 6.347h0.138c0.036 0 0.073 0 0.080 0.007 0.007 0.015 0.022 0.015 0.044 0.022 0.022 0 0.029 0.015 0.051 0.029 0.029 0.036 0.080 0.065 0.145 0.094 0.080 0.065 0.123 0.138 0.123 0.218 0 0.087-0.080 0.261-0.247 0.53s-0.596 0.922-1.285 1.983c-1.59 2.426-3.007 4.684-4.263 6.754-2.164 3.609-3.268 5.425-3.29 5.447-0.015 0.022-0.029 0.044-0.036 0.058-0.015 0.044-0.036 0.065-0.087 0.065l-0.145-0.029-0.29 0.073-0.167-0.036-0.174 0.036h-0.058l-0.596 0.080c-0.349 0-0.53-0.123-0.53-0.363 0-0.102 0.036-0.225 0.094-0.37 0.218-0.523 1.329-2.397 3.319-5.65-1.307 0.029-2.6 0.051-3.878 0.051l-2.28-0.015c-0.37 0.603-0.886 1.452-1.54 2.564-1.416 2.418-2.157 3.631-2.251 3.653-0.094 0.015-0.167 0.036-0.232 0.036-0.058 0-0.109-0.029-0.153-0.102-0.051-0.065-0.080-0.102-0.102-0.102s-0.051 0.007-0.116 0.036c-0.051 0.036-0.138 0.044-0.247 0.044l-0.254-0.007-0.087-0.065c-0.015 0-0.022 0.015-0.036 0.029-0.007 0.022-0.036 0.036-0.080 0.036-0.298 0-0.458-0.123-0.458-0.385 0-0.167 0.065-0.392 0.174-0.675 0.131-0.276 0.283-0.581 0.479-0.901s0.697-1.097 1.511-2.309c0.813-1.213 1.213-1.83 1.213-1.837-0.131-0.015-0.283-0.015-0.465-0.022-0.363 0-0.61-0.007-0.763-0.044-0.407-0.073-0.69-0.399-0.835-0.995-0.080-0.29-0.109-0.472-0.102-0.566 0-0.189 0.087-0.29 0.247-0.29l0.283 0.073c0.145 0.007 0.479 0.022 1.017 0.051s0.922 0.044 1.162 0.044l0.596-0.022c0.93-1.445 2.026-3.079 3.312-4.902-0.937 0.763-1.968 1.147-3.108 1.147-0.545 0-1.009-0.123-1.394-0.385-0.392-0.254-0.581-0.588-0.581-0.98 0-0.399 0.145-0.704 0.45-0.944 0.298-0.232 0.581-0.341 0.85-0.341s0.407 0.036 0.407 0.123c0 0.029-0.044 0.058-0.116 0.094s-0.116 0.073-0.116 0.102c0 0.116 0.123 0.218 0.37 0.298 0.254 0.087 0.53 0.138 0.842 0.138s0.683-0.094 1.14-0.269c0.458-0.182 0.922-0.414 1.409-0.697 0.683-0.392 1.227-0.726 1.62-0.988 0.225-0.109 0.436-0.16 0.639-0.16 0.211 0 0.349 0.015 0.436 0.073 0.094 0.036 0.16 0.087 0.196 0.131 0.044 0.044 0.094 0.102 0.138 0.174 0.051 0.073 0.094 0.138 0.145 0.167 0.044 0.044 0.073 0.087 0.073 0.138s-0.029 0.123-0.080 0.24c-0.058 0.102-0.327 0.537-0.813 1.293s-1.118 1.721-1.881 2.89c-0.77 1.177-1.329 2.033-1.685 2.593 1.895 0 3.943-0.029 6.137-0.102 2.68-4.219 4.089-6.427 4.234-6.638 0.145-0.203 0.276-0.341 0.399-0.399 0.131-0.065 0.276-0.094 0.45-0.094l0.901 0.073z"></path>
<path d="M83.771 13.414c0.218 0 0.436 0.094 0.654 0.29 0.225 0.196 0.327 0.487 0.327 0.886 0 0.392-0.131 0.901-0.414 1.532-0.276 0.625-0.654 1.264-1.14 1.917-0.472 0.646-1.017 1.256-1.583 1.823-0.581 0.574-1.206 1.038-1.866 1.402-0.675 0.363-1.278 0.552-1.823 0.552-0.552 0-0.988-0.182-1.322-0.523-0.327-0.341-0.494-0.821-0.494-1.431s0.153-1.293 0.458-2.033c0.298-0.741 0.683-1.394 1.162-1.968 0.472-0.566 0.98-1.075 1.54-1.532 1.155-0.93 2.171-1.387 3.043-1.387 0.392 0 0.683 0.094 0.879 0.29 0.073 0.058 0.102 0.123 0.102 0.167v0.058c0.116-0.044 0.269-0.044 0.479-0.044zM82.704 14.83h-0.073c-0.254 0-0.378-0.182-0.378-0.545-0.516 0.167-1.053 0.472-1.627 0.893-0.566 0.428-1.075 0.937-1.525 1.511-0.908 1.162-1.365 2.15-1.373 2.948 0 0.392 0.145 0.588 0.436 0.588 0.283 0 0.719-0.196 1.293-0.566 0.566-0.378 1.14-0.922 1.714-1.641 0.559-0.704 0.98-1.329 1.264-1.845 0.276-0.516 0.421-0.871 0.421-1.068-0.007-0.189-0.058-0.276-0.153-0.276z"></path>
<path d="M84.526 21.576l-0.516-0.022h-0.189c-0.073-0.022-0.145-0.065-0.225-0.123-0.087-0.065-0.145-0.116-0.189-0.138s-0.065-0.080-0.065-0.152c0-0.073 0.036-0.211 0.087-0.385 1.38-3.036 2.716-5.476 4.009-7.291 0.145-0.196 0.378-0.349 0.683-0.45 0.312-0.109 0.625-0.16 0.922-0.16 0.182 0 0.269 0.138 0.269 0.414 0 0.087-0.029 0.189-0.080 0.312-0.051 0.138-0.196 0.341-0.421 0.646-0.232 0.298-0.501 0.639-0.813 1.017-0.312 0.37-0.487 0.595-0.53 0.661 0.98-1.002 1.845-1.75 2.636-2.251 0.784-0.487 1.351-0.733 1.699-0.733 0.356 0 0.625 0.102 0.806 0.298 0.189 0.196 0.283 0.414 0.283 0.646 0 0.225-0.022 0.421-0.051 0.566-0.029 0.16-0.094 0.312-0.174 0.479-0.087 0.167-0.16 0.312-0.218 0.421-0.065 0.116-0.167 0.276-0.305 0.458-0.145 0.189-0.24 0.327-0.29 0.399-0.051 0.065-0.167 0.203-0.327 0.399-0.167 0.196-0.261 0.312-0.276 0.334 0.203-0.196 0.479-0.487 0.835-0.879 0.349-0.399 0.654-0.719 0.901-0.98 0.247-0.254 0.552-0.559 0.922-0.886 0.37-0.334 0.712-0.603 1.024-0.799 0.77-0.479 1.547-0.726 2.331-0.726 0.276 0 0.501 0.080 0.69 0.254 0.182 0.182 0.276 0.378 0.276 0.617 0 0.232-0.29 0.806-0.857 1.699-0.574 0.893-1.155 1.794-1.721 2.694-0.574 0.901-0.864 1.474-0.864 1.707 0 0.327 0.065 0.523 0.182 0.581 0.123 0.065 0.269 0.087 0.428 0.073 0.167-0.007 0.414-0.123 0.719-0.327 0.312-0.211 0.581-0.414 0.821-0.646 0.392-0.349 0.741-0.69 1.089-1.024 0.073-0.065 0.138-0.094 0.232-0.094 0.138 0 0.218 0.102 0.254 0.312 0.029 0.203 0.036 0.414 0.036 0.639 0 0.232-0.022 0.378-0.058 0.458-0.211 0.392-0.668 0.879-1.358 1.46-0.704 0.574-1.38 0.864-2.026 0.864-0.080 0-0.131 0-0.16-0.015-0.726-0.073-1.235-0.269-1.518-0.596-0.276-0.334-0.414-0.726-0.414-1.177 0-0.443 0.16-1.002 0.465-1.649 0.312-0.639 0.646-1.227 1.017-1.75 0.378-0.516 0.704-0.995 1.017-1.416 0.312-0.428 0.465-0.654 0.465-0.69 0-0.029-0.029-0.051-0.080-0.051-0.218 0-0.704 0.356-1.474 1.068-1.293 1.213-2.411 2.389-3.355 3.508-0.247 0.298-0.842 1.046-1.765 2.259-0.102 0.145-0.276 0.218-0.508 0.218-0.225 0-0.465-0.044-0.712-0.138-0.254-0.087-0.378-0.203-0.378-0.341 0-0.073 0.559-1.068 1.692-2.985s1.692-2.963 1.692-3.13c0-0.174-0.109-0.261-0.312-0.261-0.211 0-0.646 0.312-1.3 0.937-1.794 1.707-3.181 3.421-4.169 5.113-0.058 0.102-0.182 0.254-0.37 0.465-0.189 0.203-0.349 0.291-0.414 0.291z"></path>
<path d="M105.086 13.559c0 0.472-0.189 0.886-0.574 1.235-0.385 0.356-0.806 0.53-1.293 0.53-0.16 0-0.261-0.044-0.312-0.116s-0.073-0.174-0.073-0.29c0-0.109 0.007-0.232 0.044-0.349-0.261 0.080-0.545 0.218-0.857 0.392-0.305 0.174-0.69 0.436-1.147 0.792-0.458 0.349-0.683 0.596-0.683 0.777 0 0.051 0.080 0.080 0.247 0.080s0.428-0.065 0.77-0.174c0.341-0.116 0.588-0.182 0.726-0.182 0.131 0 0.225 0.015 0.269 0.022 0.094 0.051 0.182 0.16 0.298 0.327 0.102 0.16 0.16 0.298 0.16 0.392s-0.094 0.218-0.283 0.37c-0.189 0.16-0.392 0.269-0.625 0.356-0.24 0.080-0.392 0.145-0.465 0.182-1.489 0.842-2.237 1.416-2.237 1.721 0 0.552 0.465 0.835 1.409 0.835 0.603 0 1.213-0.189 1.816-0.574 0.516-0.32 0.98-0.654 1.394-0.995 0.421-0.334 0.675-0.537 0.792-0.625 0.116-0.080 0.196-0.109 0.247-0.109 0.189 0 0.283 0.203 0.283 0.617s-0.022 0.69-0.073 0.813c-0.058 0.131-0.189 0.291-0.428 0.487-1.511 1.235-2.956 1.852-4.299 1.852-0.726 0-1.3-0.102-1.736-0.298-0.799-0.363-1.191-0.915-1.191-1.656 0-0.98 0.675-1.721 2.033-2.222-0.269-0.123-0.443-0.269-0.516-0.465-0.087-0.189-0.116-0.487-0.116-0.901s0.196-0.85 0.581-1.322c0.385-0.465 0.857-0.85 1.416-1.14 1.249-0.668 2.368-1.002 3.341-1.002 0.24 0 0.465 0.051 0.719 0.167 0.247 0.109 0.363 0.269 0.363 0.472z"></path>
<path d="M0 24.445c2.723 1.14 5.505 2.026 8.33 2.694 2.811 0.704 5.672 1.206 8.533 1.518 1.431 0.196 2.869 0.218 4.292 0.349 1.438 0.015 2.869 0.123 4.299 0.044l2.15-0.051c0.712-0.015 1.431-0.102 2.142-0.145 0.719-0.065 1.431-0.094 2.135-0.189l2.128-0.298c2.847-0.312 5.621-0.973 8.373-1.772 2.789-0.77 5.425-1.787 8.214-2.84 2.847-1.053 5.941-1.736 9.071-1.402 1.547 0.196 3.101 0.69 4.365 1.605 1.271 0.901 2.186 2.186 2.767 3.537-0.871-1.206-1.961-2.186-3.217-2.803-1.249-0.61-2.629-0.857-4.002-0.813-2.767 0.036-5.49 0.959-8.054 2.121-2.6 1.285-5.418 2.447-8.257 3.413-2.861 0.922-5.817 1.656-8.816 2.033-5.955 0.784-12.063 0.799-17.953-0.399-2.956-0.537-5.839-1.373-8.628-2.44-2.767-1.111-5.469-2.411-7.872-4.161z"></path>
<path d="M99.131 7.182c-2.309-0.98-4.662-1.75-7.044-2.353-2.375-0.632-4.779-1.075-7.197-1.387-1.206-0.189-2.426-0.225-3.631-0.37-1.213-0.036-2.411-0.16-3.624-0.109-0.603 0.015-1.213 0.015-1.816 0-0.603 0-1.213 0.065-1.816 0.087-0.603 0.044-1.213 0.051-1.816 0.116l-1.801 0.218c-2.418 0.196-4.757 0.69-7.103 1.3-2.375 0.574-4.626 1.38-7.015 2.193-2.462 0.813-5.127 1.314-7.8 0.944-1.314-0.218-2.644-0.69-3.689-1.518-1.068-0.821-1.794-1.939-2.237-3.108 0.733 1.024 1.649 1.866 2.694 2.382 1.046 0.523 2.193 0.741 3.348 0.726 2.324 0 4.626-0.748 6.798-1.678 2.222-1.060 4.655-1.99 7.081-2.76 2.447-0.734 4.997-1.293 7.546-1.561 5.091-0.545 10.298-0.414 15.287 0.763 2.498 0.53 4.931 1.336 7.262 2.331 2.346 1.017 4.604 2.2 6.572 3.784z"></path>
</symbol>
<symbol id="icon-client-5" viewBox="0 0 79 32">
<path d="M0 19.812v-19.812h11.67v19.805l-11.67 0.007zM10.252 15.205l0.299-2.192-1.079-0.109-0.332 1.689c-0.678 0.339-1.513 0.502-2.51 0.502-1.357 0-2.429-0.427-3.216-1.289-0.794-0.862-1.181-1.995-1.181-3.406 0-1.377 0.387-2.51 1.153-3.399 0.767-0.896 1.771-1.337 3.026-1.337 0.638 0 1.181 0.075 1.615 0.217 0.434 0.149 0.835 0.339 1.208 0.59l0.319 1.669 1.106-0.109-0.319-2.185c-0.461-0.4-1.018-0.719-1.656-0.97-0.638-0.244-1.432-0.366-2.375-0.366-1.113 0-2.069 0.271-2.877 0.821-0.801 0.55-1.432 1.276-1.879 2.178-0.441 0.909-0.665 1.893-0.665 2.938 0 1.656 0.509 3.040 1.54 4.146 1.025 1.099 2.361 1.656 4.017 1.656 1.628 0 2.897-0.353 3.806-1.045z"></path>
<path d="M15.626 19.812v-19.812h5.021v19.805h-5.021v0.007zM16.162 16.074h3.962v-0.997h-1.371v-11.059h-2.612v0.997h1.384v10.062h-1.364v0.997z"></path>
<path d="M24.609 19.812v-19.812h8.814v19.805l-8.814 0.007zM26.203 8.868l-0.278 1.805 1.018 0.122 0.299-1.343c0.434-0.217 0.93-0.319 1.513-0.319 0.692 0 1.167 0.17 1.411 0.522 0.244 0.346 0.36 0.801 0.36 1.364v0.699c-0.217-0.020-0.434-0.041-0.678-0.047-0.244-0.014-0.475-0.020-0.706-0.020-0.875 0-1.71 0.156-2.483 0.461-0.773 0.312-1.16 0.963-1.16 1.941 0 0.828 0.258 1.405 0.794 1.71 0.536 0.326 1.058 0.475 1.567 0.475 0.631 0 1.174-0.163 1.622-0.489 0.441-0.332 0.794-0.699 1.045-1.126v0.041c0.020 1.052 0.495 1.574 1.425 1.574 0.36 0 0.692-0.088 1.018-0.258l-0.020-0.807c-0.156 0.068-0.332 0.109-0.522 0.109-0.448 0-0.672-0.278-0.672-0.841v-3.711c0-1.744-0.93-2.612-2.789-2.612-0.516 0-0.997 0.054-1.452 0.17-0.468 0.129-0.902 0.326-1.309 0.584zM30.512 13.149c-0.047 0.638-0.305 1.153-0.78 1.52-0.475 0.38-0.977 0.563-1.52 0.563-0.339 0-0.672-0.095-0.984-0.285-0.319-0.183-0.468-0.529-0.468-1.031 0-0.611 0.237-0.997 0.706-1.181 0.475-0.19 0.997-0.271 1.588-0.271 0.258 0 0.516 0.007 0.753 0.034 0.244 0.020 0.489 0.041 0.699 0.047v0.604h0.007z"></path>
<path d="M37.392 19.812v-19.812h8.006v19.805l-8.006 0.007zM44.557 13.814c0-0.617-0.163-1.072-0.495-1.371-0.326-0.299-0.726-0.502-1.208-0.624-0.482-0.115-0.957-0.21-1.432-0.285-0.475-0.081-0.882-0.204-1.215-0.373-0.326-0.163-0.495-0.455-0.495-0.868 0-0.4 0.156-0.685 0.475-0.882 0.326-0.197 0.719-0.278 1.215-0.278 0.57 0 1.106 0.122 1.594 0.387l0.197 1.255 1.018-0.122-0.197-1.825c-0.326-0.204-0.726-0.366-1.201-0.502s-0.977-0.21-1.52-0.21c-0.719 0-1.377 0.17-1.988 0.509-0.604 0.339-0.909 0.923-0.909 1.757 0 0.611 0.17 1.052 0.495 1.337 0.332 0.292 0.74 0.482 1.228 0.597 0.495 0.115 0.984 0.217 1.466 0.299s0.889 0.217 1.221 0.394c0.326 0.17 0.495 0.475 0.495 0.909 0 0.441-0.217 0.774-0.645 0.984-0.421 0.217-0.909 0.319-1.459 0.319-0.624 0-1.201-0.122-1.737-0.387l0.047-1.031-0.977-0.109-0.237 1.771c0.339 0.224 0.78 0.407 1.323 0.556 0.543 0.142 1.086 0.217 1.635 0.217 0.943 0 1.723-0.21 2.354-0.645 0.631-0.421 0.95-1.018 0.95-1.778z"></path>
<path d="M49.361 19.812v-19.812h8.013v19.805l-8.013 0.007zM56.532 13.814c0-0.617-0.17-1.072-0.495-1.371-0.332-0.299-0.726-0.502-1.215-0.624-0.482-0.115-0.957-0.21-1.432-0.285-0.475-0.081-0.882-0.204-1.208-0.373-0.332-0.163-0.495-0.455-0.495-0.868 0-0.4 0.156-0.685 0.475-0.882s0.712-0.278 1.208-0.278c0.57 0 1.106 0.122 1.601 0.387l0.19 1.255 1.018-0.122-0.19-1.825c-0.332-0.204-0.726-0.366-1.201-0.502s-0.984-0.21-1.527-0.21c-0.712 0-1.371 0.17-1.981 0.509s-0.909 0.923-0.909 1.757c0 0.611 0.163 1.052 0.489 1.337 0.332 0.292 0.74 0.482 1.235 0.597s0.977 0.217 1.459 0.299c0.489 0.081 0.896 0.217 1.221 0.394 0.332 0.17 0.495 0.475 0.495 0.909 0 0.441-0.21 0.774-0.638 0.984-0.427 0.217-0.909 0.319-1.466 0.319-0.617 0-1.201-0.122-1.73-0.387l0.047-1.031-0.977-0.109-0.244 1.771c0.339 0.224 0.787 0.407 1.33 0.556 0.536 0.142 1.079 0.217 1.635 0.217 0.936 0 1.723-0.21 2.354-0.645 0.624-0.421 0.95-1.018 0.95-1.778z"></path>
<path d="M61.336 19.812v-19.812h5.272v19.805h-5.272v0.007zM62.109 16.074h3.962v-0.997h-1.371v-6.799h-2.619v0.997h1.398v5.801h-1.364v0.997h-0.007zM63.344 4.668v1.594h1.337v-1.594h-1.337z"></path>
<path d="M70.57 19.812v-19.812h8.441v19.805l-8.441 0.007zM78.251 13.448l-1.052-0.231c-0.237 1.316-0.943 1.974-2.103 1.974-0.773 0-1.364-0.258-1.771-0.78-0.407-0.529-0.611-1.262-0.611-2.192 0-0.841 0.183-1.561 0.543-2.158 0.36-0.604 0.957-0.896 1.791-0.896 0.638 0 1.201 0.149 1.662 0.441l0.305 1.316 1.018-0.129-0.305-1.879c-0.394-0.299-0.814-0.509-1.248-0.631-0.434-0.115-0.909-0.17-1.425-0.17-1.208 0-2.13 0.427-2.728 1.276-0.611 0.855-0.909 1.818-0.909 2.897 0 1.248 0.319 2.225 0.963 2.918s1.506 1.045 2.578 1.045c1.072 0 1.873-0.299 2.375-0.896s0.814-1.228 0.916-1.907z"></path>
<path d="M5.041 30.634c-0.224 0.4-0.55 0.726-0.977 0.943-0.434 0.224-0.95 0.339-1.547 0.339h-1.737v-5.462h1.737c0.597 0 1.12 0.109 1.547 0.332s0.753 0.529 0.977 0.95c0.224 0.414 0.332 0.889 0.332 1.452 0 0.55-0.109 1.038-0.332 1.445zM4.085 30.736c0.38-0.366 0.563-0.882 0.563-1.547 0-0.672-0.183-1.181-0.563-1.554-0.38-0.366-0.923-0.55-1.635-0.55h-0.984v4.207h0.984c0.712 0 1.255-0.19 1.635-0.556z"></path>
<path d="M8.963 27.031v1.866h2.076v0.543h-2.076v1.907h2.307v0.57h-3.013v-5.462h3.013v0.577h-2.307z"></path>
<path d="M17.39 31.224c-0.122 0.217-0.312 0.407-0.563 0.543s-0.556 0.21-0.936 0.21c-0.36 0-0.685-0.068-0.97-0.197-0.278-0.136-0.502-0.305-0.678-0.543-0.163-0.231-0.258-0.489-0.292-0.78h0.76c0.020 0.156 0.068 0.312 0.156 0.455 0.081 0.142 0.217 0.271 0.387 0.366 0.163 0.095 0.366 0.149 0.611 0.149 0.305 0 0.55-0.081 0.712-0.258 0.163-0.17 0.251-0.373 0.251-0.638 0-0.224-0.054-0.407-0.17-0.543-0.122-0.136-0.265-0.251-0.427-0.326-0.163-0.081-0.407-0.163-0.699-0.265-0.346-0.115-0.617-0.224-0.835-0.319-0.21-0.095-0.387-0.251-0.529-0.455-0.149-0.204-0.224-0.461-0.224-0.794 0-0.278 0.068-0.536 0.204-0.753s0.326-0.387 0.59-0.509c0.251-0.115 0.563-0.17 0.902-0.17 0.529 0 0.97 0.122 1.276 0.387 0.319 0.258 0.495 0.59 0.556 0.997h-0.76c-0.034-0.217-0.156-0.407-0.326-0.57-0.183-0.17-0.427-0.251-0.74-0.251-0.278 0-0.509 0.075-0.678 0.217-0.17 0.149-0.251 0.36-0.251 0.624 0 0.21 0.061 0.387 0.163 0.509 0.122 0.136 0.258 0.237 0.421 0.312s0.394 0.156 0.678 0.251c0.346 0.115 0.631 0.224 0.848 0.332 0.217 0.102 0.4 0.258 0.543 0.461 0.149 0.204 0.224 0.489 0.224 0.835-0.020 0.251-0.075 0.495-0.204 0.719z"></path>
<path d="M21.169 26.455v5.462h-0.706v-5.462h0.706z"></path>
<path d="M28.314 26.875c0.441 0.319 0.726 0.746 0.875 1.289h-0.746c-0.129-0.332-0.346-0.604-0.651-0.801-0.299-0.197-0.658-0.299-1.072-0.299-0.366 0-0.706 0.088-0.997 0.265-0.292 0.17-0.522 0.414-0.699 0.733-0.163 0.319-0.251 0.699-0.251 1.133 0 0.448 0.088 0.835 0.251 1.153s0.407 0.57 0.706 0.746c0.305 0.176 0.651 0.265 1.045 0.265 0.339 0 0.645-0.081 0.923-0.217 0.278-0.142 0.502-0.36 0.685-0.631s0.285-0.597 0.319-0.963h-2.144v-0.522h2.741v0.645c-0.054 0.434-0.19 0.828-0.407 1.181-0.224 0.36-0.522 0.631-0.902 0.835s-0.807 0.312-1.289 0.312c-0.522 0-0.991-0.115-1.398-0.353-0.4-0.231-0.712-0.556-0.936-0.984-0.224-0.421-0.339-0.902-0.339-1.445s0.115-1.025 0.339-1.445c0.224-0.414 0.543-0.753 0.936-0.984 0.4-0.231 0.862-0.36 1.391-0.36 0.658-0.020 1.187 0.136 1.622 0.448z"></path>
<path d="M36.442 31.916h-0.706l-2.836-4.315v4.315h-0.712v-5.462h0.712l2.836 4.322v-4.322h0.706v5.462z"></path>
<path d="M46.633 31.224c-0.129 0.217-0.312 0.407-0.563 0.543s-0.563 0.21-0.943 0.21c-0.353 0-0.685-0.068-0.963-0.197-0.285-0.136-0.509-0.305-0.678-0.543-0.17-0.231-0.265-0.489-0.292-0.78h0.753c0.020 0.156 0.068 0.312 0.156 0.455s0.224 0.271 0.387 0.366c0.163 0.095 0.366 0.149 0.611 0.149 0.312 0 0.55-0.081 0.719-0.258 0.163-0.17 0.251-0.373 0.251-0.638 0-0.224-0.061-0.407-0.176-0.543s-0.258-0.251-0.427-0.326c-0.163-0.081-0.407-0.163-0.692-0.265-0.353-0.115-0.624-0.224-0.835-0.319-0.217-0.095-0.387-0.251-0.536-0.455-0.142-0.204-0.224-0.461-0.224-0.794 0-0.278 0.068-0.536 0.204-0.753s0.332-0.387 0.597-0.509c0.251-0.115 0.556-0.17 0.896-0.17 0.536 0 0.97 0.122 1.282 0.387 0.319 0.258 0.489 0.59 0.55 0.997h-0.753c-0.041-0.217-0.156-0.407-0.332-0.57-0.183-0.17-0.427-0.251-0.733-0.251-0.285 0-0.516 0.075-0.678 0.217-0.176 0.149-0.251 0.36-0.251 0.624 0 0.21 0.054 0.387 0.163 0.509 0.115 0.136 0.251 0.237 0.414 0.312 0.17 0.075 0.4 0.156 0.678 0.251 0.353 0.115 0.631 0.224 0.855 0.332 0.21 0.102 0.394 0.258 0.543 0.461 0.142 0.204 0.224 0.489 0.224 0.835-0.020 0.251-0.081 0.495-0.204 0.719z"></path>
<path d="M53.052 26.455v0.577h-1.54v4.885h-0.719v-4.885h-1.54v-0.577h3.8z"></path>
<path d="M56.342 26.455v3.277c0 0.529 0.115 0.93 0.36 1.187 0.244 0.251 0.563 0.387 0.991 0.387 0.414 0 0.733-0.122 0.97-0.387 0.231-0.258 0.346-0.645 0.346-1.181v-3.27h0.706v3.27c0 0.746-0.183 1.309-0.55 1.676-0.366 0.38-0.862 0.563-1.486 0.563-0.611 0-1.099-0.183-1.472-0.563-0.366-0.38-0.55-0.93-0.55-1.676v-3.27h0.685v-0.014z"></path>
<path d="M67.008 30.634c-0.224 0.4-0.55 0.726-0.977 0.943-0.434 0.224-0.95 0.339-1.554 0.339h-1.73v-5.462h1.73c0.604 0 1.126 0.109 1.554 0.332s0.753 0.529 0.977 0.95c0.224 0.414 0.332 0.889 0.332 1.452 0 0.55-0.109 1.038-0.332 1.445zM66.058 30.736c0.38-0.366 0.563-0.882 0.563-1.547 0-0.672-0.183-1.181-0.563-1.554-0.38-0.366-0.923-0.55-1.635-0.55h-0.977v4.207h0.977c0.706 0 1.255-0.19 1.635-0.556z"></path>
<path d="M70.944 26.455v5.462h-0.712v-5.462h0.712z"></path>
<path d="M77.878 26.746c0.407 0.244 0.726 0.57 0.957 0.997s0.346 0.909 0.346 1.445c0 0.529-0.115 1.018-0.346 1.445-0.231 0.421-0.55 0.753-0.957 0.997-0.407 0.237-0.862 0.353-1.371 0.353-0.502 0-0.963-0.115-1.371-0.353-0.407-0.244-0.74-0.577-0.97-0.997-0.231-0.427-0.346-0.916-0.346-1.445 0-0.536 0.115-1.018 0.346-1.445s0.55-0.753 0.97-0.997c0.414-0.244 0.868-0.36 1.371-0.36 0.509 0 0.963 0.115 1.371 0.36zM75.496 27.309c-0.305 0.176-0.536 0.414-0.699 0.746-0.17 0.319-0.251 0.699-0.251 1.133 0 0.427 0.081 0.801 0.251 1.133 0.163 0.326 0.394 0.57 0.699 0.746 0.299 0.17 0.624 0.258 1.004 0.258 0.366 0 0.706-0.088 1.004-0.258 0.305-0.176 0.536-0.427 0.699-0.746s0.251-0.699 0.251-1.126c0-0.434-0.088-0.814-0.251-1.133s-0.394-0.57-0.699-0.746c-0.299-0.17-0.624-0.258-1.004-0.258-0.366-0.014-0.706 0.075-1.004 0.251z"></path>
</symbol>
</defs>
</svg>
