<svg width="52.000000" height="52.000000" viewBox="0 0 52 52" fill="none" xmlns="http://www.w3.org/2000/svg" xmlns:xlink="http://www.w3.org/1999/xlink">
	<desc>
			Created with Pixso.
	</desc>
	<defs/>
	<circle cx="26.000000" cy="26.000000" r="26.000000" fill="#FFFFFF" fill-opacity="1.000000"/>
	<path d="M25.5 16C19.7 16 15 20.7 15 26.5C15 32.29 19.7 37 25.5 37C31.29 37 36 32.29 36 26.5C36 20.7 31.29 16 25.5 16Z" stroke="#CDA274" stroke-opacity="1.000000" stroke-width="2.000000"/>
	<path d="M35.44 22.33C34.63 22.33 34.71 23.84 33.7 23.13C33.32 22.86 33.09 22.48 32.62 22.36C32.21 22.26 31.78 22.37 31.38 22.44C30.91 22.52 30.36 22.56 30.01 22.91C29.67 23.25 29.49 23.7 29.13 24.04C28.43 24.71 28.14 25.43 28.59 26.36C29.03 27.26 29.94 27.75 30.92 27.69C31.88 27.62 32.89 27.06 32.86 28.47C32.85 28.97 32.95 29.31 33.1 29.78C33.25 30.21 33.24 30.62 33.27 31.06C33.33 31.89 33.48 32.81 33.89 33.54L34.64 32.46C34.74 32.33 34.93 32.14 34.98 31.98C35.06 31.71 34.9 31.23 34.88 30.91C34.86 30.6 34.87 30.29 34.82 29.97C34.76 29.54 34.5 29.13 34.47 28.7C34.4 27.89 34.55 27.25 33.93 26.58C33.33 25.93 32.46 25.77 31.63 25.9C31.21 25.97 29.52 26.24 30.2 25.28C30.33 25.09 30.57 24.93 30.72 24.75C30.85 24.59 30.96 24.3 31.12 24.18C31.27 24.06 31.98 23.92 32.18 23.98C32.38 24.04 32.59 24.34 32.77 24.47C33.09 24.71 33.47 24.88 33.87 24.94C34.56 25.04 36.01 24.64 36 23.75C35.99 23.32 35.6 22.73 35.44 22.33ZM27.44 29.66C27.17 28.52 25.63 28.14 24.8 27.52C24.32 27.16 23.89 26.61 23.27 26.57C22.98 26.55 22.74 26.61 22.45 26.54C22.19 26.47 21.98 26.33 21.7 26.36C21.17 26.43 20.84 26.99 20.28 26.92C19.75 26.85 19.2 26.22 19.08 25.71C18.92 25.05 19.44 24.84 19.99 24.78C20.22 24.75 20.48 24.73 20.71 24.81C21 24.92 21.14 25.21 21.4 25.35C21.89 25.63 21.99 25.19 21.91 24.75C21.8 24.09 21.67 23.82 22.25 23.37C22.66 23.06 23 22.83 22.94 22.27C22.9 21.94 22.72 21.79 22.89 21.47C23.02 21.22 23.37 20.99 23.59 20.84C24.18 20.46 26.1 20.48 25.32 19.41C25.09 19.09 24.66 18.53 24.26 18.45C23.75 18.35 23.52 18.92 23.17 19.17C22.81 19.43 22.1 19.72 21.73 19.32C21.24 18.79 22.06 18.61 22.24 18.23C22.42 17.86 21.82 17.14 21.5 16.96L19.99 18.67C19.95 18.95 19.96 19.24 20.04 19.52C20.11 19.8 20.24 20.06 20.41 20.29C20.71 20.68 21.19 20.8 21.21 21.33C21.23 21.84 21.16 22.1 20.82 22.46C20.68 22.61 20.58 22.83 20.43 22.97C20.26 23.14 20.32 23.09 20.04 23.14C19.52 23.23 19.07 23.37 18.57 23.51C17.72 23.74 17.64 22.35 17.26 21.81L16 22.84C15.98 23.01 16.2 23.32 16.26 23.5C16.61 24.55 17.31 25.36 17.76 26.36C18.23 27.42 19.5 27.12 20.07 28.05C20.56 28.88 20.03 29.92 20.4 30.78C20.68 31.41 21.32 31.55 21.76 32.01C22.21 32.47 22.2 33.1 22.27 33.7C22.34 34.41 22.47 35.11 22.64 35.8C22.71 36.04 22.76 36.36 22.92 36.56C23.03 36.69 23.42 36.81 23.26 36.85C23.48 36.89 23.86 37.09 24.04 36.94C24.28 36.75 24.22 36.14 24.26 35.87C24.38 35.06 24.78 34.27 25.33 33.67C25.86 33.07 26.6 32.66 27.05 31.99C27.49 31.33 27.63 30.44 27.44 29.66ZM25.75 31C25.45 31.55 24.77 31.91 24.34 32.34C24.22 32.46 23.97 32.87 23.82 32.78C23.72 32.72 23.68 32.19 23.64 32.07C23.44 31.46 23.06 30.93 22.54 30.54C22.39 30.42 21.99 30.27 21.9 30.1C21.8 29.92 21.89 29.5 21.9 29.3C21.9 29.02 21.77 28.54 21.84 28.29C21.92 27.99 21.77 28.17 22.03 28.11C22.17 28.08 22.75 28.18 22.93 28.22C23.2 28.27 23.36 28.45 23.57 28.62C24.15 29.09 24.78 29.44 25.43 29.8C25.93 30.08 26.07 30.43 25.75 31ZM22.23 16.98C22.47 17.22 22.7 17.49 23.06 17.52C23.39 17.54 23.71 17.36 24.01 17.59C24.34 17.84 24.57 18.16 25.01 18.24C25.43 18.32 25.87 18.07 25.98 17.64C26.08 17.23 25.86 16.78 25.85 16.36C25.85 16.31 25.88 16.05 25.84 16.01C25.81 15.98 25.57 16.01 25.53 16.01C25.25 16.02 24.98 16.04 24.71 16.07C23.71 16.18 22.74 16.43 21.81 16.82C21.94 16.9 22.09 16.94 22.23 16.98ZM30.93 19.84C31.36 19.84 31.8 19.65 31.66 19.15C31.54 18.73 31.34 18.27 30.86 18.5C30.55 18.64 30.12 19.01 30.08 19.37C30.04 19.78 30.64 19.84 30.93 19.84ZM30.59 22.03C31.03 22.29 31.68 22.17 32.01 21.79C32.27 21.49 32.42 20.98 32.88 20.98C33.09 20.98 33.29 21.06 33.43 21.21C33.62 21.41 33.59 21.59 33.63 21.84C33.72 22.41 34.32 21.88 34.47 21.66C34.58 21.52 34.71 21.31 34.67 21.12C34.62 20.95 34.42 20.76 34.33 20.61C34.07 20.15 33.86 19.62 33.47 19.25C33.1 18.89 32.64 18.93 32.28 19.3C31.99 19.61 31.65 19.85 31.45 20.22C31.31 20.48 31.15 20.6 30.87 20.67C30.71 20.71 30.53 20.72 30.4 20.83C30.03 21.12 30.24 21.82 30.59 22.03Z" fill="#CDA274" fill-opacity="1.000000" fill-rule="nonzero"/>
</svg>
